<svg width="234" height="52" viewBox="0 0 234 52" fill="none" xmlns="http://www.w3.org/2000/svg">
<g clip-path="url(#clip0_79_3054)">
<path fill-rule="evenodd" clip-rule="evenodd" d="M17.2663 0.733398C26.797 0.733398 34.514 8.45042 34.514 17.9811V40.2431H34.5139V49.2401C34.5139 50.3426 33.6248 51.196 32.5579 51.196C31.4555 51.196 30.602 50.307 30.602 49.2401V43.7635C30.602 42.7678 29.7485 41.9854 28.6816 41.9498H28.6461C27.5792 41.9498 26.6902 42.7322 26.6902 43.728V46.1818C26.6902 47.2131 25.8722 48.031 24.8409 48.031C23.8096 48.031 22.9917 47.2131 22.9917 46.1818V43.7635C22.9917 42.7678 22.1382 41.9854 21.0713 41.9498H21.0357C19.9689 41.9498 19.0798 42.7322 19.0798 43.728V44.2258C19.0798 45.2571 18.2619 46.0751 17.2306 46.0751C16.1993 46.0751 15.3813 45.2571 15.3813 44.2258V43.7635C15.3813 42.7678 14.5278 41.9854 13.461 41.9498H13.4254C12.3585 41.9498 11.4695 42.7322 11.4695 43.728V46.1818C11.4695 47.2131 10.6516 48.031 9.62025 48.031C8.58894 48.031 7.77101 47.2131 7.77101 46.1818V43.7635C7.77101 42.7678 6.91751 41.9854 5.85064 41.9498H5.81508C4.74821 41.9498 3.85915 42.7322 3.85915 43.728V43.7635V49.3468C3.85915 50.3781 3.04122 51.196 2.00991 51.196C0.978607 51.196 0.160672 50.3781 0.160672 49.3468V40.2431H0.0185547V17.9811C0.0185547 8.45042 7.73558 0.733398 17.2663 0.733398ZM10.3672 13.358C8.3757 13.358 6.77539 14.9583 6.77539 16.9498C6.77539 17.5001 6.8976 18.0206 7.11649 18.4857C7.68978 19.7034 8.926 20.5413 10.3671 20.5413C12.3585 20.5413 13.9589 18.941 13.9589 16.9495C13.9589 16.4031 13.8384 15.8861 13.6224 15.4236C13.0511 14.2005 11.8121 13.358 10.3672 13.358ZM23.0985 13.358C21.107 13.358 19.5067 14.9583 19.5067 16.9498C19.5067 17.4885 19.6238 17.9985 19.834 18.456C20.4011 19.6898 21.6456 20.5413 23.0984 20.5413C25.0899 20.5413 26.6902 18.941 26.6902 16.9495C26.6902 16.4031 26.5697 15.8861 26.3537 15.4236C25.7824 14.2005 24.5434 13.358 23.0985 13.358ZM20.1464 23.3867C20.1464 24.2402 18.9729 25.4137 17.3726 25.4137C15.7723 25.4137 14.8832 24.5958 14.6343 23.7779C14.5276 23.4934 14.492 22.711 15.2033 22.711C15.5356 22.711 15.8291 22.7653 16.1418 22.8232C16.4984 22.8893 16.88 22.9599 17.3726 22.9599C17.8565 22.9599 18.2953 22.8876 18.6753 22.8251C19.0492 22.7635 19.3661 22.7113 19.613 22.7465C19.9331 22.7821 20.1464 23.0666 20.1464 23.3867Z" fill="#F292FC"/>
<path fill-rule="evenodd" clip-rule="evenodd" d="M128.576 0.733313C130.496 0.768875 132.168 1.978 132.843 3.72055L132.95 4.00504L150.553 46.6798C150.696 46.9999 150.767 47.3199 150.767 47.64V47.8889C150.802 48.7424 150.518 49.5959 149.913 50.2716C149.309 50.9117 148.455 51.2318 147.566 51.1962C146.926 51.1962 146.286 50.9829 145.753 50.5917C145.29 50.236 144.935 49.8093 144.65 49.3114L144.508 48.9914L127.758 7.24122L121.57 22.5686H124.557C126.193 22.5686 127.545 23.8488 127.687 25.4847V25.7336V25.8047C127.687 27.4406 126.407 28.792 124.806 28.9698H124.557H119.01L110.937 48.9914C110.688 49.6315 110.226 50.1649 109.692 50.5917C109.159 50.9829 108.519 51.1962 107.879 51.1962C106.99 51.2318 106.136 50.9117 105.532 50.2716C104.963 49.6315 104.643 48.778 104.678 47.8889C104.678 47.5689 104.714 47.2844 104.82 46.9643L104.927 46.6798L112.217 28.9342H109.088C107.452 28.9342 106.101 27.654 105.958 26.0181V25.7336C105.958 24.0978 107.239 22.7464 108.839 22.5686H109.088H114.956L122.602 3.96949C123.171 2.15581 124.806 0.875565 126.691 0.697754H127.011H128.576V0.733313ZM75.9793 0.733313C77.8997 0.768875 79.6067 1.94243 80.2824 3.72055L80.3891 4.00504L97.9924 46.6798C98.0991 46.9643 98.1702 47.2844 98.2058 47.5689V48.1734C98.1702 48.9558 97.8857 49.6671 97.3523 50.2716C96.7477 50.9117 95.8942 51.2318 95.0052 51.1962C94.365 51.1962 93.7249 50.9829 93.1915 50.5917C92.7292 50.236 92.3736 49.8093 92.0891 49.3114L91.9468 48.9914L75.197 7.24122L69.0802 22.5686H72.0675C73.7389 22.5686 75.0903 23.8488 75.2325 25.4847V25.7336V25.8047C75.2325 27.4762 73.9523 28.8275 72.3164 28.9698H72.0675H66.4842L58.4116 48.9914C58.1626 49.6315 57.7003 50.1649 57.1669 50.5917C56.6334 50.9829 55.9933 51.1962 55.3532 51.1962C54.4641 51.2318 53.6106 50.9117 53.0061 50.2716C52.4371 49.6315 52.117 48.778 52.1526 47.8889C52.1526 47.5689 52.1881 47.2844 52.2948 46.9643L52.4015 46.6798L59.6918 28.9342H56.5623C54.9264 28.9342 53.5751 27.654 53.4328 26.0181V25.7336C53.4328 24.0978 54.7131 22.7464 56.3134 22.5686H56.5623H62.359L70.0049 3.96949C70.5739 2.15581 72.2097 0.875565 74.0945 0.697754H74.4146H75.9793V0.733313ZM149.558 0.733313C150.198 0.733313 150.838 0.946686 151.371 1.33787C151.905 1.76462 152.367 2.29805 152.616 2.93818L169.366 44.6883L186.116 2.93818C186.4 2.29805 186.827 1.76462 187.36 1.33787C187.894 0.946686 188.534 0.733313 189.174 0.733313C190.028 0.697751 190.881 1.01781 191.486 1.65794C192.09 2.29806 192.375 3.15155 192.375 4.04061C192.375 4.46736 192.304 4.85854 192.161 5.24973L174.558 47.9245C173.953 49.8449 172.175 51.1607 170.148 51.1962H168.584C166.557 51.1607 164.778 49.8449 164.174 47.9245L146.571 5.24973C146.428 4.85854 146.357 4.46736 146.357 4.04061C146.322 3.15155 146.642 2.33362 147.211 1.65794C147.851 1.01781 148.704 0.662188 149.558 0.733313ZM230.746 1.05338C231.564 1.01781 232.347 1.37343 232.916 1.97799C233.52 2.54699 233.84 3.32936 233.84 4.1473C233.876 4.96523 233.52 5.71204 232.916 6.28104C232.347 6.85003 231.564 7.17009 230.746 7.17009H205.462V22.9242H228.186C229.004 22.8886 229.786 23.2443 230.355 23.8488C230.924 24.4178 231.28 25.2002 231.28 26.0181C231.315 26.836 230.96 27.5829 230.355 28.1519C229.786 28.7208 229.004 29.0409 228.186 29.0409H205.462V44.8661H230.746C231.564 44.8306 232.347 45.1862 232.916 45.7908C233.52 46.3598 233.84 47.1421 233.84 47.9601C233.876 48.778 233.52 49.5248 232.916 50.0938C232.347 50.6628 231.564 50.9829 230.746 50.9473H202.154C201.301 51.0184 200.447 50.6628 199.878 50.0227C199.274 49.4181 198.954 48.6002 198.954 47.7467V4.36067C198.918 3.47161 199.274 2.65368 199.878 2.01356C200.483 1.37344 201.301 1.05337 202.154 1.08894H230.746V1.05338Z" fill="#F292FC"/>
</g>
<defs>
<clipPath id="clip0_79_3054">
<rect width="234" height="51" fill="white" transform="translate(0 0.5)"/>
</clipPath>
</defs>
</svg>
