<svg width="324" height="66" viewBox="0 0 324 66" fill="none" xmlns="http://www.w3.org/2000/svg">
<g clip-path="url(#clip0_79_3041)">
<path d="M19.5683 27.8212L32.1733 15.2168L44.7849 27.8279L52.1194 20.4935L32.1733 0.546875L12.2339 20.4868L19.5683 27.8212Z" fill="#FFB500"/>
<path d="M14.3885 32.9994L7.0542 25.665L-0.280475 32.9997L7.05384 40.334L14.3885 32.9994Z" fill="#FFB500"/>
<path d="M19.5683 38.1795L32.1733 50.7839L44.7844 38.1733L52.123 45.5037L52.1194 45.5078L32.1733 65.4538L12.2334 45.5144L12.2231 45.5042L19.5683 38.1795Z" fill="#FFB500"/>
<path d="M57.2928 40.3371L64.6274 33.0024L57.2931 25.6681L49.9585 33.0028L57.2928 40.3371Z" fill="#FFB500"/>
<path d="M39.6128 32.9963H39.6159L32.1732 25.5537L26.6731 31.0539H26.6725L26.041 31.686L24.7373 32.9897L24.7271 32.9999L24.7373 33.0107L32.1732 40.4466L39.6159 33.004L39.6194 32.9999L39.6128 32.9963Z" fill="#FFB500"/>
<path d="M76.0615 16.2744H92.0136C95.9727 16.2744 98.9666 17.2905 100.996 19.3226C102.566 20.8964 103.351 22.8471 103.351 25.174V25.2724C103.351 26.2556 103.229 27.1246 102.985 27.8782C102.741 28.6328 102.415 29.312 102.007 29.9185C101.601 30.5255 101.128 31.0581 100.591 31.5164C100.053 31.9758 99.4751 32.3695 98.8564 32.6965C100.846 33.4512 102.413 34.4749 103.555 35.7699C104.697 37.0653 105.269 38.8601 105.269 41.1542V41.2521C105.269 42.8259 104.966 44.2024 104.361 45.383C103.755 46.5626 102.888 47.5464 101.758 48.3333C100.629 49.1202 99.2711 49.7098 97.684 50.1035C96.0968 50.4967 94.3379 50.693 92.4078 50.693H76.0615V16.2744ZM90.4187 30.1892C92.091 30.1892 93.4187 29.9031 94.4015 29.329C95.3847 28.7553 95.8764 27.829 95.8764 26.5509V26.4525C95.8764 25.3057 95.4498 24.4291 94.5978 23.8221C93.7453 23.2157 92.516 22.9122 90.9103 22.9122H83.4365V30.1892H90.4187ZM92.435 44.0558C94.1067 44.0558 95.417 43.7533 96.3685 43.1463C97.3189 42.5399 97.7947 41.5971 97.7947 40.3186V40.2207C97.7947 39.0734 97.3517 38.1639 96.4669 37.4913C95.5816 36.8203 94.1559 36.484 92.1889 36.484H83.4365V44.0563H92.435V44.0558Z" fill="#FFB500"/>
<path d="M114.769 16.2744H122.342V50.694H114.769V16.2744Z" fill="#FFB500"/>
<path d="M133.811 16.2744H140.792L156.921 37.4672V16.2744H164.395V50.694H157.954L141.284 28.8132V50.694H133.811V16.2744Z" fill="#FFB500"/>
<path d="M187.32 16.0288H194.302L209.054 50.694H201.137L197.99 42.9746H183.435L180.289 50.694H172.568L187.32 16.0288ZM195.286 36.2866L190.713 25.1252L186.141 36.2866H195.286Z" fill="#FFB500"/>
<path d="M217.228 16.2744H224.211L240.338 37.4672V16.2744H247.812V50.694H241.371L224.702 28.8132V50.694H217.228V16.2744Z" fill="#FFB500"/>
<path d="M275.064 51.2833C272.539 51.2833 270.196 50.824 268.032 49.9069C265.868 48.9897 264 47.7353 262.427 46.145C260.853 44.5553 259.623 42.6785 258.739 40.5152C257.854 38.3513 257.412 36.0403 257.412 33.5816V33.4837C257.412 31.025 257.854 28.7227 258.739 26.5753C259.624 24.4283 260.853 22.5433 262.427 20.9208C264 19.2982 265.885 18.0192 268.081 17.0851C270.277 16.1511 272.704 15.6841 275.359 15.6841C276.964 15.6841 278.431 15.8158 279.758 16.0773C281.086 16.3403 282.29 16.7001 283.373 17.159C284.455 17.6183 285.454 18.1755 286.373 18.8307C287.289 19.4869 288.142 20.2077 288.929 20.9946L284.111 26.5507C282.766 25.3382 281.398 24.3868 280.005 23.6988C278.611 23.0108 277.047 22.6663 275.309 22.6663C273.867 22.6663 272.531 22.9452 271.302 23.5025C270.073 24.0597 269.015 24.8297 268.13 25.813C267.246 26.7962 266.557 27.9358 266.065 29.2303C265.574 30.5257 265.328 31.9104 265.328 33.3853V33.4832C265.328 34.9581 265.574 36.352 266.065 37.6623C266.557 38.9741 267.236 40.1209 268.106 41.1042C268.974 42.0874 270.023 42.8667 271.252 43.4403C272.482 44.0145 273.834 44.3005 275.309 44.3005C277.277 44.3005 278.939 43.9402 280.299 43.2189C281.66 42.4986 283.013 41.5148 284.356 40.2686L289.175 45.1367C288.29 46.0876 287.371 46.9402 286.422 47.6932C285.471 48.4479 284.43 49.0948 283.299 49.6362C282.168 50.1765 280.93 50.5871 279.587 50.865C278.242 51.1434 276.735 51.2833 275.064 51.2833Z" fill="#FFB500"/>
<path d="M298.087 16.2744H324V23.0111H305.561V29.9934H321.788V36.7295H305.561V43.9579H324.247V50.694H298.087V16.2744Z" fill="#FFB500"/>
</g>
<defs>
<clipPath id="clip0_79_3041">
<rect width="324" height="64.9067" fill="white" transform="translate(0 0.546875)"/>
</clipPath>
</defs>
</svg>
