<svg width="375" height="146" viewBox="0 0 375 146" fill="none" xmlns="http://www.w3.org/2000/svg">
<g clip-path="url(#clip0_165_10432)">
<path d="M671.763 -55.2402C667.403 -59.0155 661.106 -59.1996 655.391 -53.3066C649.772 -47.4135 655.391 -41.06 655.391 -41.06C646.188 -42.4412 636.403 -40.5996 628.556 -35.8115C622.938 -32.4046 617.9 -26.0511 620.225 -20.1581C614.8 -22.6442 607.825 -21.9076 603.078 -18.5006C598.234 -15.0016 595.619 -8.92439 596.684 -3.21548C592.034 -6.43825 585.156 -6.6224 580.312 -3.49171C575.469 -0.361015 573.047 5.71621 574.5 11.0568C568.688 7.37363 560.55 7.0974 554.544 10.5043C550.475 4.24294 542.531 0.559769 534.878 1.38848C527.225 2.21719 520.347 7.55779 517.925 14.5558C513.953 13.8192 509.594 15.8449 507.753 19.2519C505.912 22.6588 506.881 27.2627 509.884 29.841C507.462 28.2756 503.878 28.4598 501.747 30.3934C499.809 32.0509 498.356 34.7212 499.131 37.0231C499.228 37.2994 499.325 37.4835 499.422 37.7598C499.325 37.4835 499.131 37.2994 499.131 37.0231C496.709 32.1429 491.575 28.4598 485.859 27.9073C479.95 27.3548 473.75 30.1172 470.456 34.8132C465.419 28.6439 454.181 28.5518 449.047 34.537C444.106 26.6182 430.544 25.4212 424.053 32.3271C418.241 27.2627 407.1 31.038 406.034 38.4964C399.447 33.7083 388.209 37.2073 385.884 44.7578C380.459 39.6014 370.772 39.4172 365.056 44.2974C359.534 34.8132 343.356 33.34 335.994 41.6271C334.734 36.1023 329.503 31.6825 323.594 31.1301C317.684 30.5776 311.678 33.8924 309.256 39.0489C305.672 37.2073 300.828 37.9439 298.019 40.7984C295.209 43.5608 294.628 48.1647 296.663 51.5716C287.362 50.0063 277.481 52.6766 270.409 58.5697C271.475 50.0984 263.144 41.9954 254.909 38.7726C245.803 35.1816 233.791 35.8261 227.494 43.3766C225.459 37.6677 216.45 35.734 211.994 39.9697C204.05 37.5756 194.362 43.5608 192.619 51.2954C188.356 47.2439 180.8 46.7835 176.053 50.4667C171.209 46.139 162.491 46.9677 158.519 52.032C157.066 42.8241 145.247 36.6548 136.334 40.4301C138.562 34.8132 131.781 28.0915 125.775 30.0251C128.003 23.5796 121.997 15.937 114.925 16.1212C112.212 10.136 105.722 5.80829 98.8438 5.62413C91.9656 5.34789 85.1844 9.21522 81.9875 15.0162C78.2094 11.5172 72.3969 10.3202 67.4563 12.0697C62.5156 13.8192 58.8344 18.3311 58.35 23.2113C52.2469 22.1063 46.0469 28.3677 47.5969 34.0766C40.7188 30.4855 31.225 32.0509 25.9937 37.7598C19.9875 30.7617 13.2062 29.1043 5.16562 35.2736C6.52185 30.1172 4.09998 24.2241 -0.646881 21.3697C-5.39377 18.5152 -11.9812 18.8835 -16.3406 22.1984C-16.4375 18.239 -20.4094 8.47858 -38.4281 8.29443C-53.3469 8.11027 -58.7719 13.4509 -60.5156 21.2776C-62.8406 19.8043 -66.2312 20.0806 -68.1687 22.0142C-70.1062 23.9479 -70.2031 27.2627 -68.4594 29.2885C-72.625 24.5004 -76.5969 23.2113 -80.4719 25.8816C-83.0875 21.5538 -87.5437 18.9756 -92.775 18.7915C-85.6062 16.9499 -82.5062 7.0974 -87.5437 1.84888C-93.3562 -4.13627 -103.528 -1.7422 -111.569 1.02017C-108.759 -2.93923 -108.953 -8.64815 -112.053 -12.4234C-115.153 -16.1986 -120.966 -17.6719 -125.713 -16.0145C-124.647 -20.066 -126.584 -24.5779 -130.363 -26.7878C-134.044 -28.9977 -139.275 -28.5373 -142.569 -25.867C-140.922 -30.563 -142.956 -36.2719 -147.316 -39.0343C-151.675 -41.7967 -157.875 -41.5204 -161.944 -38.3897C-165.431 -42.165 -170.953 -44.1907 -176.281 -43.7303C-181.997 -43.1778 -187.809 -38.666 -187.228 -33.1412C-188.875 -38.2056 -196.334 -40.4155 -200.791 -37.1927C-200.306 -43.9145 -207.959 -49.8996 -214.741 -48.1501C-211.156 -53.9511 -212.803 -62.2382 -218.325 -66.4739C-223.944 -70.7095 -235.472 -69.4204 -236.828 -62.3303C-242.35 -68.8679 -256.203 -66.7501 -256.688 -58.2788C-262.5 -62.5145 -272.284 -59.4759 -274.416 -52.8462C-277.031 -55.1481 -281.391 -55.5165 -284.394 -53.4907C-287.3 -51.465 -288.462 -47.5056 -287.009 -44.3749C-289.334 -49.3472 -295.728 -52.1095 -301.25 -50.6363C-302.412 -54.0432 -305.513 -56.4373 -309 -57.4501V160.225H683V-57.358C679.125 -58.3709 674.766 -57.9105 671.763 -55.2402Z" fill="url(#paint0_linear_165_10432)"/>
</g>
<defs>
<linearGradient id="paint0_linear_165_10432" x1="187" y1="160.326" x2="187" y2="-68.7759" gradientUnits="userSpaceOnUse">
<stop offset="0.529573" stop-color="#B5DED8"/>
<stop offset="1" stop-color="white"/>
</linearGradient>
<clipPath id="clip0_165_10432">
<rect width="992" height="229.83" fill="white" transform="translate(-309 -84)"/>
</clipPath>
</defs>
</svg>
