<svg width="1920" height="468" viewBox="0 0 1920 468" fill="none" xmlns="http://www.w3.org/2000/svg">
<g clip-path="url(#clip0_95_3070)">
<path d="M1947.12 58.5624C1938.24 50.8749 1925.42 50.4999 1913.78 62.4999C1902.34 74.4999 1913.78 87.4374 1913.78 87.4374C1895.04 84.6249 1875.12 88.3749 1859.14 98.1249C1847.7 105.062 1837.44 118 1842.17 130C1831.12 124.937 1816.92 126.437 1807.26 133.375C1797.39 140.5 1792.07 152.875 1794.24 164.5C1784.77 157.937 1770.76 157.562 1760.9 163.937C1751.04 170.312 1746.1 182.687 1749.06 193.562C1737.23 186.062 1720.66 185.5 1708.43 192.437C1700.14 179.687 1683.96 172.187 1668.38 173.875C1652.8 175.562 1638.79 186.437 1633.86 200.687C1625.77 199.187 1616.89 203.312 1613.15 210.25C1609.4 217.187 1611.37 226.562 1617.49 231.812C1612.55 228.625 1605.26 229 1600.92 232.937C1596.97 236.312 1594.01 241.75 1595.59 246.437C1595.79 247 1595.98 247.375 1596.18 247.937C1595.98 247.375 1595.59 247 1595.59 246.437C1590.66 236.5 1580.2 229 1568.56 227.875C1556.53 226.75 1543.91 232.375 1537.2 241.937C1526.94 229.375 1504.06 229.187 1493.6 241.375C1483.54 225.25 1455.93 222.812 1442.71 236.875C1430.87 226.562 1408.19 234.25 1406.02 249.437C1392.6 239.687 1369.72 246.812 1364.99 262.187C1353.94 251.687 1334.21 251.312 1322.57 261.25C1311.33 241.937 1278.39 238.937 1263.39 255.812C1260.83 244.562 1250.18 235.562 1238.14 234.437C1226.11 233.312 1213.88 240.062 1208.95 250.562C1201.65 246.812 1191.79 248.312 1186.07 254.125C1180.35 259.75 1179.16 269.125 1183.3 276.062C1164.37 272.875 1144.25 278.312 1129.85 290.312C1132.02 273.062 1115.05 256.562 1098.28 250C1079.74 242.687 1055.28 244 1042.46 259.375C1038.31 247.75 1019.97 243.812 1010.89 252.437C994.719 247.562 974.992 259.75 971.441 275.5C962.762 267.25 947.375 266.312 937.709 273.812C927.846 265 910.092 266.687 902.004 277C899.045 258.25 874.979 245.687 856.83 253.375C861.367 241.937 847.559 228.25 835.328 232.187C839.865 219.062 827.635 203.5 813.234 203.875C807.711 191.687 794.494 182.875 780.488 182.5C766.482 181.937 752.674 189.812 746.164 201.625C738.471 194.5 726.635 192.062 716.574 195.625C706.514 199.187 699.018 208.375 698.031 218.312C685.604 216.062 672.979 228.812 676.135 240.437C662.129 233.125 642.797 236.312 632.145 247.937C619.914 233.687 606.105 230.312 589.732 242.875C592.494 232.375 587.562 220.375 577.896 214.562C568.23 208.75 554.816 209.5 545.939 216.25C545.742 208.187 537.654 188.312 500.963 187.937C470.584 187.562 459.537 198.437 455.986 214.375C451.252 211.375 444.348 211.937 440.402 215.875C436.457 219.812 436.26 226.562 439.811 230.687C431.328 220.937 423.24 218.312 415.35 223.75C410.023 214.937 400.949 209.687 390.297 209.312C404.895 205.562 411.207 185.5 400.949 174.812C389.113 162.625 368.4 167.5 352.027 173.125C357.748 165.062 357.354 153.437 351.041 145.75C344.729 138.062 332.893 135.062 323.227 138.437C325.396 130.187 321.451 121 313.758 116.5C306.262 112 295.609 112.937 288.902 118.375C292.256 108.812 288.113 97.1874 279.236 91.5624C270.359 85.9374 257.734 86.4999 249.449 92.8749C242.348 85.1874 231.104 81.0624 220.254 81.9999C208.615 83.1249 196.779 92.3124 197.963 103.562C194.609 93.2499 179.42 88.7499 170.346 95.3124C171.332 81.6249 155.748 69.4374 141.939 72.9999C149.238 61.1874 145.885 44.3124 134.641 35.6874C123.199 27.0624 99.7246 29.6874 96.9629 44.1249C85.7188 30.8124 57.5098 35.1249 56.5234 52.3749C44.6875 43.7499 24.7637 49.9374 20.4238 63.4374C15.0977 58.7499 6.2207 57.9999 0.105469 62.1249C-5.8125 66.2499 -8.17969 74.3124 -5.2207 80.6874C-9.95508 70.5624 -22.9746 64.9374 -34.2188 67.9374C-36.5859 60.9999 -42.8984 56.1249 -50 54.0624V497.312H1970V54.2499C1962.11 52.1874 1953.23 53.1249 1947.12 58.5624Z" fill="url(#paint0_linear_95_3070)"/>
</g>
<defs>
<linearGradient id="paint0_linear_95_3070" x1="960" y1="497.518" x2="960" y2="30.9999" gradientUnits="userSpaceOnUse">
<stop offset="0.529573" stop-color="#B5DED8"/>
<stop offset="1" stop-color="white"/>
</linearGradient>
<clipPath id="clip0_95_3070">
<rect width="2020" height="468" fill="white" transform="translate(-50)"/>
</clipPath>
</defs>
</svg>
