<svg width="40" height="32" viewBox="0 0 40 32" fill="none" xmlns="http://www.w3.org/2000/svg">
<path d="M32.7479 4.67289L32.5922 4.44254L32.3399 4.32563C30.0116 3.24649 27.5222 2.46232 24.9202 2.01587L24.2228 1.89622L23.8779 2.51396C23.666 2.8935 23.4335 3.35266 23.2248 3.79858C20.9661 3.52289 18.7217 3.52221 16.4934 3.79743C16.2807 3.34884 16.0434 2.88876 15.8304 2.51064L15.4846 1.89682L14.7902 2.01584C12.1849 2.46237 9.69241 3.24952 7.36393 4.33157L7.10961 4.44976L6.95383 4.68295C2.28047 11.6787 1.00342 18.5336 1.63828 25.2739L1.68016 25.7185L2.03916 25.9841C5.14634 28.2827 8.16551 29.6833 11.1306 30.5985L11.8108 30.8085L12.2319 30.2344C12.9719 29.2255 13.6325 28.1522 14.2018 27.0203L14.3062 26.8129C17.9778 27.8036 21.7598 27.8074 25.4099 26.8224L25.5116 27.0241C26.0798 28.1507 26.7374 29.2272 27.4821 30.2387L27.9033 30.8106L28.5821 30.6013C31.5499 29.6862 34.5721 28.2855 37.6797 25.9837L38.0377 25.7185L38.08 25.275C38.8252 17.4584 36.8003 10.6678 32.7479 4.67289ZM16.2112 17.6298L16.211 17.6383L16.2111 17.6467C16.2132 19.1472 15.1676 20.1653 14.0874 20.1653C13.0325 20.1653 11.9637 19.1417 11.9637 17.6453C11.9637 16.1413 13.0093 15.1226 14.0874 15.1226C15.1787 15.1226 16.2341 16.1508 16.2112 17.6298ZM27.7549 17.6298L27.7547 17.6376V17.6453C27.7547 19.1483 26.7101 20.1653 25.6311 20.1653C24.5762 20.1653 23.5074 19.1417 23.5074 17.6453C23.5074 16.1413 24.5529 15.1226 25.6311 15.1226C26.7224 15.1226 27.7778 16.1508 27.7549 17.6298Z" fill="white" stroke="#7682FF" stroke-width="2"/>
</svg>
