<svg width="18" height="33" viewBox="0 0 18 33" fill="none" xmlns="http://www.w3.org/2000/svg">
<path d="M10.9331 31.0849H11.9331V30.0849V30.0683V17.1349H14.8664H15.7614L15.8603 16.2454L16.3936 11.4454L16.517 10.3349H15.3997H11.9331V8.91826C11.9331 8.60991 11.9426 8.40845 11.968 8.2616C11.9817 8.18212 11.9964 8.14232 12.0037 8.12607C12.0455 8.09979 12.2476 8.0016 12.8997 8.0016H15.3497H16.3497V7.0016V2.21826V1.21826H15.3497H11.3997C8.88378 1.21826 6.96546 1.83896 5.69604 3.18968C4.43784 4.52846 3.99974 6.39289 3.99974 8.46826V10.3516H2.06641H1.06641V11.3516V16.1683V17.1683H2.06641H3.99974V30.0849V31.0849H4.99974H10.9331ZM12.0085 8.11685C12.0085 8.11689 12.0082 8.11745 12.0075 8.11845L12.0085 8.11685ZM11.9968 8.1308C11.9956 8.13197 11.9949 8.1325 11.9948 8.13247C11.9948 8.13245 11.9954 8.13187 11.9968 8.1308Z" fill="white" stroke="#436EC8" stroke-width="2"/>
</svg>
