<svg width="294" height="68" viewBox="0 0 294 68" fill="none" xmlns="http://www.w3.org/2000/svg">
<g clip-path="url(#clip0_79_3063)">
<path d="M67.4328 34.0001C67.4328 52.5139 52.4226 67.5241 33.9088 67.5241C15.395 67.5241 0.384766 52.5139 0.384766 34.0001C0.384766 15.4863 15.395 0.476074 33.9088 0.476074C52.4265 0.476074 67.4328 15.4863 67.4328 34.0001Z" fill="#2081E2"/>
<path d="M16.9244 35.1264L17.069 34.8991L25.7899 21.2563C25.9174 21.0565 26.217 21.0772 26.3134 21.2941C27.7704 24.5593 29.0275 28.6201 28.4386 31.1483C28.1872 32.1884 27.4983 33.5971 26.7233 34.8991C26.6235 35.0885 26.5132 35.2745 26.3961 35.4536C26.341 35.5363 26.248 35.5845 26.1481 35.5845H17.1792C16.9381 35.5845 16.7969 35.3227 16.9244 35.1264Z" fill="white"/>
<path d="M55.7962 37.6616V39.8212C55.7962 39.9452 55.7204 40.0554 55.6102 40.1036C54.9352 40.3929 52.624 41.4538 51.6631 42.7902C49.2108 46.2034 47.3371 51.084 43.1488 51.084H25.6759C19.4832 51.084 14.4648 46.0485 14.4648 39.8349V39.6352C14.4648 39.4699 14.5991 39.3356 14.7645 39.3356H24.505C24.6978 39.3356 24.839 39.5147 24.8218 39.7041C24.7529 40.3378 24.87 40.9854 25.1697 41.5743C25.7483 42.7489 26.9469 43.4825 28.2419 43.4825H33.064V39.7179H28.2971C28.0525 39.7179 27.9079 39.4354 28.0491 39.2357C28.1007 39.1564 28.1593 39.0738 28.2213 38.9808C28.6725 38.3402 29.3166 37.3448 29.9572 36.2116C30.3947 35.447 30.8183 34.6307 31.1593 33.8109C31.2282 33.6628 31.2832 33.5112 31.3384 33.3631C31.4314 33.1014 31.5278 32.8569 31.5967 32.6123C31.6656 32.4056 31.7207 32.1887 31.7758 31.9854C31.9377 31.2897 32.0066 30.5526 32.0066 29.788C32.0066 29.4884 31.9928 29.1749 31.9653 28.8753C31.9514 28.5481 31.9101 28.2208 31.8688 27.8936C31.8412 27.6043 31.7896 27.3184 31.7345 27.0188C31.6656 26.5814 31.5691 26.1474 31.4589 25.7099L31.421 25.5447C31.3384 25.245 31.2695 24.9591 31.1731 24.6595C30.9009 23.7191 30.5876 22.803 30.2569 21.9454C30.1363 21.6044 29.9985 21.2772 29.8608 20.95C29.6576 20.4575 29.4509 20.0097 29.2615 19.586C29.1651 19.3931 29.0824 19.2175 28.9997 19.0384C28.9067 18.8352 28.8103 18.6319 28.7138 18.4391C28.645 18.291 28.5657 18.1532 28.5106 18.0154L27.9217 16.927C27.839 16.7789 27.9768 16.6033 28.1386 16.6481L31.8241 17.6469H31.8344C31.8412 17.6469 31.8447 17.6504 31.8481 17.6504L32.3338 17.7847L32.8677 17.9362L33.064 17.9913V15.8008C33.064 14.7434 33.9113 13.8857 34.9583 13.8857C35.4819 13.8857 35.9572 14.0993 36.2982 14.4471C36.6391 14.795 36.8527 15.2704 36.8527 15.8008V19.0522L37.2454 19.1624C37.2763 19.1727 37.3073 19.1865 37.3349 19.2071C37.4314 19.2795 37.5691 19.3862 37.7447 19.5172C37.8825 19.6273 38.0306 19.7617 38.2097 19.8995C38.5645 20.1853 38.9881 20.5539 39.4531 20.9775C39.5771 21.0843 39.6976 21.1945 39.8079 21.3047C40.4072 21.8627 41.0788 22.5171 41.7195 23.2404C41.8986 23.4436 42.0742 23.6503 42.2533 23.8673C42.4324 24.0877 42.6219 24.3047 42.7871 24.5217C43.0042 24.811 43.2384 25.1107 43.4416 25.4241C43.538 25.5722 43.6482 25.7237 43.7412 25.8719C44.003 26.2679 44.2338 26.6778 44.4542 27.0877C44.5472 27.2771 44.6436 27.4838 44.7263 27.687C44.9708 28.2346 45.1637 28.7926 45.2877 29.3506C45.3256 29.4711 45.3531 29.602 45.367 29.7191V29.7467C45.4083 29.912 45.4221 30.0876 45.4358 30.2667C45.4909 30.8385 45.4634 31.4102 45.3394 31.9854C45.2877 32.23 45.2188 32.4607 45.1362 32.7053C45.0535 32.9395 44.9708 33.184 44.8641 33.4148C44.6575 33.8935 44.4129 34.3723 44.1236 34.8201C44.0306 34.9854 43.9203 35.1611 43.8101 35.3264C43.6896 35.502 43.5656 35.6674 43.4554 35.8293C43.3038 36.0359 43.142 36.2529 42.9766 36.4458C42.8285 36.649 42.677 36.8522 42.5116 37.0313C42.2809 37.3034 42.0604 37.5617 41.8296 37.8098C41.6919 37.9716 41.5438 38.137 41.3922 38.2851C41.2442 38.4503 41.0926 38.5984 40.9548 38.7362C40.7241 38.967 40.5312 39.1461 40.3693 39.2942L39.9904 39.6421C39.9353 39.6903 39.863 39.7179 39.7872 39.7179H36.8527V43.4825H40.5449C41.3716 43.4825 42.1569 43.1897 42.7906 42.6524C43.0076 42.463 43.9548 41.6432 45.0742 40.4067C45.112 40.3654 45.1603 40.3344 45.2154 40.3206L55.4139 37.3723C55.6034 37.3172 55.7962 37.4618 55.7962 37.6616Z" fill="white"/>
<path d="M100.101 50.0892C97.0701 50.0892 94.2843 49.4101 91.7438 48.0518C89.2336 46.6935 87.2282 44.8037 85.7283 42.3825C84.2593 39.9317 83.5244 37.1856 83.5244 34.1443C83.5244 31.1029 84.2593 28.3716 85.7283 25.9504C87.2282 23.5291 89.2336 21.6393 91.7438 20.281C94.2843 18.9228 97.0701 18.2437 100.101 18.2437C103.131 18.2437 105.902 18.9228 108.412 20.281C110.953 21.6393 112.942 23.5291 114.381 25.9504C115.851 28.3716 116.585 31.1029 116.585 34.1443C116.585 37.1856 115.851 39.9317 114.381 42.3825C112.912 44.8037 110.922 46.6935 108.412 48.0518C105.902 49.4101 103.131 50.0892 100.101 50.0892ZM100.101 43.1797C102.672 43.1797 104.723 42.3529 106.254 40.6994C107.815 39.0458 108.596 36.8608 108.596 34.1443C108.596 31.3982 107.815 29.2132 106.254 27.5891C104.723 25.9356 102.672 25.1088 100.101 25.1088C97.4986 25.1088 95.4174 25.9209 93.8558 27.5448C92.3251 29.1689 91.5601 31.3686 91.5601 34.1443C91.5601 36.8903 92.3251 39.0902 93.8558 40.7437C95.4174 42.3677 97.4986 43.1797 100.101 43.1797Z" fill="white"/>
<path d="M128.806 28.5638C129.571 27.4123 130.627 26.4821 131.974 25.7735C133.321 25.0648 134.897 24.7104 136.704 24.7104C138.816 24.7104 140.729 25.2272 142.444 26.2607C144.157 27.2941 145.504 28.7705 146.484 30.6898C147.494 32.6091 147.999 34.8385 147.999 37.3778C147.999 39.9172 147.494 42.1613 146.484 44.1101C145.504 46.0294 144.157 47.5205 142.444 48.5836C140.729 49.6171 138.816 50.1337 136.704 50.1337C134.928 50.1337 133.352 49.7795 131.974 49.0708C130.627 48.3621 129.571 47.4468 128.806 46.3247V57.1318H120.954V25.0648H128.806V28.5638ZM140.01 37.3778C140.01 35.4881 139.459 34.0117 138.356 32.9487C137.285 31.8562 135.953 31.3099 134.362 31.3099C132.801 31.3099 131.469 31.8562 130.367 32.9487C129.296 34.0412 128.76 35.5323 128.76 37.4221C128.76 39.3119 129.296 40.8031 130.367 41.8955C131.469 42.9881 132.801 43.5343 134.362 43.5343C135.923 43.5343 137.255 42.9881 138.356 41.8955C139.459 40.7735 140.01 39.2676 140.01 37.3778Z" fill="white"/>
<path d="M176.271 37.0235C176.271 37.7322 176.226 38.4703 176.134 39.2381H158.363C158.486 40.7735 158.991 41.9546 159.879 42.7814C160.797 43.5786 161.914 43.9772 163.231 43.9772C165.19 43.9772 166.552 43.18 167.318 41.5855H175.674C175.246 43.2095 174.466 44.6711 173.333 45.9704C172.231 47.2696 170.838 48.2883 169.154 49.0265C167.47 49.7646 165.588 50.1337 163.507 50.1337C160.996 50.1337 158.762 49.6171 156.802 48.5836C154.843 47.5501 153.313 46.0737 152.21 44.1544C151.109 42.2351 150.558 39.991 150.558 37.4221C150.558 34.8532 151.093 32.6091 152.165 30.6898C153.266 28.7705 154.797 27.2941 156.756 26.2607C158.715 25.2272 160.965 24.7104 163.507 24.7104C165.986 24.7104 168.19 25.2124 170.118 26.2164C172.047 27.2203 173.547 28.6524 174.618 30.5127C175.721 32.3729 176.271 34.5432 176.271 37.0235ZM168.236 35.0304C168.236 33.7312 167.777 32.6977 166.858 31.93C165.94 31.1623 164.792 30.7784 163.415 30.7784C162.098 30.7784 160.981 31.1475 160.062 31.8857C159.175 32.6239 158.623 33.6721 158.41 35.0304H168.236Z" fill="white"/>
<path d="M196.026 24.7988C199.026 24.7988 201.414 25.7437 203.189 27.6335C204.995 29.4937 205.898 32.0626 205.898 35.3402V49.7792H198.092V36.3589C198.092 34.7053 197.648 33.4209 196.76 32.5055C195.873 31.5901 194.679 31.1325 193.179 31.1325C191.679 31.1325 190.485 31.5901 189.598 32.5055C188.71 33.4209 188.266 34.7053 188.266 36.3589V49.7792H180.414V25.0645H188.266V28.3421C189.062 27.2496 190.133 26.3933 191.48 25.7732C192.827 25.1236 194.342 24.7988 196.026 24.7988Z" fill="white"/>
<path d="M223.018 50.0892C220.661 50.0892 218.549 49.7201 216.681 48.9819C214.814 48.2437 213.314 47.1512 212.182 45.7043C211.08 44.2575 210.498 42.5154 210.437 40.4779H218.793C218.916 41.6295 219.329 42.5154 220.034 43.1354C220.738 43.726 221.656 44.0213 222.789 44.0213C223.952 44.0213 224.87 43.7703 225.544 43.2683C226.217 42.7368 226.554 42.0134 226.554 41.0981C226.554 40.3303 226.279 39.6955 225.728 39.1935C225.207 38.6915 224.549 38.2781 223.753 37.9534C222.987 37.6285 221.886 37.2594 220.447 36.8461C218.365 36.2259 216.666 35.6059 215.35 34.9858C214.034 34.3658 212.901 33.4504 211.952 32.2397C211.003 31.0291 210.528 29.4494 210.528 27.5006C210.528 24.6068 211.615 22.348 213.789 20.724C215.962 19.0704 218.793 18.2437 222.283 18.2437C225.835 18.2437 228.696 19.0704 230.87 20.724C233.044 22.348 234.207 24.6216 234.36 27.5448H225.865C225.804 26.5409 225.421 25.7584 224.717 25.1974C224.013 24.6068 223.11 24.3116 222.008 24.3116C221.059 24.3116 220.294 24.5625 219.712 25.0645C219.131 25.5369 218.84 26.2309 218.84 27.1462C218.84 28.1501 219.329 28.9327 220.309 29.4936C221.289 30.0547 222.819 30.66 224.901 31.3096C226.983 31.9888 228.666 32.6383 229.952 33.2585C231.268 33.8785 232.401 34.7791 233.35 35.9602C234.299 37.1413 234.773 38.662 234.773 40.5222C234.773 42.2939 234.299 43.9031 233.35 45.35C232.432 46.7969 231.085 47.9484 229.309 48.8048C227.534 49.661 225.437 50.0892 223.018 50.0892Z" fill="white"/>
<path d="M263.758 37.0235C263.758 37.7322 263.712 38.4703 263.62 39.2381H245.85C245.972 40.7735 246.477 41.9546 247.365 42.7814C248.284 43.5786 249.401 43.9772 250.717 43.9772C252.677 43.9772 254.039 43.18 254.804 41.5855H263.161C262.732 43.2095 261.952 44.6711 260.819 45.9704C259.717 47.2696 258.325 48.2883 256.64 49.0265C254.957 49.7646 253.074 50.1337 250.993 50.1337C248.483 50.1337 246.248 49.6171 244.289 48.5836C242.33 47.5501 240.799 46.0737 239.697 44.1544C238.595 42.2351 238.044 39.991 238.044 37.4221C238.044 34.8532 238.58 32.6091 239.651 30.6898C240.753 28.7705 242.283 27.2941 244.243 26.2607C246.202 25.2272 248.452 24.7104 250.993 24.7104C253.472 24.7104 255.676 25.2124 257.605 26.2164C259.534 27.2203 261.033 28.6524 262.105 30.5127C263.207 32.3729 263.758 34.5432 263.758 37.0235ZM255.723 35.0304C255.723 33.7312 255.263 32.6977 254.345 31.93C253.426 31.1623 252.278 30.7784 250.901 30.7784C249.585 30.7784 248.467 31.1475 247.549 31.8857C246.661 32.6239 246.11 33.6721 245.896 35.0304H255.723Z" fill="white"/>
<path d="M266.339 37.3778C266.339 34.8385 266.829 32.6091 267.809 30.6898C268.818 28.7705 270.181 27.2941 271.895 26.2607C273.61 25.2272 275.522 24.7104 277.635 24.7104C279.441 24.7104 281.018 25.0648 282.365 25.7735C283.742 26.4821 284.798 27.4123 285.533 28.5638V25.0648H293.385V49.7795H285.533V46.2804C284.768 47.432 283.696 48.3621 282.318 49.0708C280.971 49.7795 279.395 50.1337 277.589 50.1337C275.507 50.1337 273.61 49.6171 271.895 48.5836C270.181 47.5205 268.818 46.0294 267.809 44.1101C266.829 42.1613 266.339 39.9172 266.339 37.3778ZM285.533 37.4221C285.533 35.5323 284.982 34.0412 283.88 32.9487C282.809 31.8562 281.492 31.3099 279.931 31.3099C278.369 31.3099 277.038 31.8562 275.936 32.9487C274.865 34.0117 274.329 35.4881 274.329 37.3778C274.329 39.2676 274.865 40.7735 275.936 41.8955C277.038 42.9881 278.369 43.5343 279.931 43.5343C281.492 43.5343 282.809 42.9881 283.88 41.8955C284.982 40.8031 285.533 39.3119 285.533 37.4221Z" fill="white"/>
</g>
<defs>
<clipPath id="clip0_79_3063">
<rect width="293" height="67.0481" fill="white" transform="translate(0.384766 0.476074)"/>
</clipPath>
</defs>
</svg>
