<svg width="335" height="54" viewBox="0 0 335 54" fill="none" xmlns="http://www.w3.org/2000/svg">
<path d="M64.3845 40.9152C63.5538 40.9152 63.1384 40.7075 62.723 40.4998C62.5153 40.0844 62.3076 39.6691 62.3076 39.046V15.7844C62.3076 15.1614 62.5153 14.5383 62.723 14.3306C63.1384 13.9152 63.5538 13.7075 64.3845 13.7075H74.1461C77.8845 13.7075 80.5845 14.5383 82.4538 15.9921C84.1153 17.6537 85.1538 19.9383 85.1538 23.0537C85.1538 26.1691 84.323 28.4537 82.4538 30.1152C80.7922 31.5691 77.8845 32.3998 74.1461 32.3998H70.4076V38.8383C70.4076 39.4614 70.1999 40.0844 69.9922 40.2921C69.5768 40.7075 69.1615 40.7075 68.3307 40.7075H64.3845V40.9152ZM73.523 26.5844C74.5615 26.5844 75.3922 26.3768 76.0153 25.7537C76.6384 25.1306 76.8461 24.2998 76.8461 23.0537C76.8461 21.8075 76.6384 20.9768 76.0153 20.3537C75.3922 19.7306 74.5615 19.5229 73.523 19.5229H70.4076V26.5844H73.523Z" fill="white"/>
<path d="M94.5001 41.5386C92.0078 41.5386 89.9308 40.7078 88.477 39.0463C87.0231 37.3848 86.1924 35.1001 86.1924 32.1924C86.1924 29.9078 86.6078 28.0386 87.6462 26.3771C88.6847 24.7155 90.1385 23.4694 92.0078 22.4309C93.877 21.6001 96.1616 20.9771 98.4462 20.9771C100.523 20.9771 102.185 21.1847 103.846 21.6001C105.508 22.0155 106.754 22.6386 108.208 23.4694V39.4617C108.208 39.8771 108.208 40.2924 108 40.5001C107.792 40.7078 107.377 40.7078 106.962 40.7078H102.808C102.6 40.7078 102.185 40.7078 102.185 40.5001C101.977 40.2924 101.977 40.2924 101.769 40.0848L101.146 38.8386C100.315 39.6694 99.4847 40.2924 98.4462 40.7078C97.4078 41.3309 95.9539 41.5386 94.5001 41.5386ZM97.4078 36.1386C98.4462 36.1386 99.277 35.9309 99.9001 35.3078C100.523 34.8924 100.731 34.0617 100.731 33.2309V27.0001C100.315 26.7924 99.4847 26.5847 98.8616 26.5847C97.4078 26.5847 96.3693 27.0001 95.5385 28.0386C94.7078 29.0771 94.2924 30.3232 94.2924 32.1924C94.2924 34.6847 95.3308 36.1386 97.4078 36.1386Z" fill="white"/>
<path d="M113.815 40.9158C112.984 40.9158 112.569 40.7081 112.154 40.5004C111.738 40.0851 111.738 39.6697 111.738 39.0466V22.8466C111.738 22.4312 111.738 22.0158 111.946 21.8081C112.154 21.6004 112.569 21.6004 112.984 21.6004H117.138C117.554 21.6004 117.761 21.6004 117.761 21.8081C117.969 21.8081 117.969 22.0158 118.177 22.2235L118.384 23.4697C119.215 22.6389 120.046 22.2235 121.292 21.8081C122.538 21.3927 123.784 21.1851 125.446 21.1851C127.523 21.1851 129.392 21.8081 130.638 23.0543C131.884 24.3004 132.715 25.962 132.715 28.4543V39.0466C132.715 39.6697 132.507 40.2927 132.3 40.5004C132.092 40.9158 131.469 40.9158 130.638 40.9158H126.692C125.861 40.9158 125.446 40.7081 125.031 40.5004C124.615 40.0851 124.615 39.6697 124.615 39.0466V28.8697C124.615 28.0389 124.407 27.4158 123.992 27.2081C123.577 26.7927 123.161 26.5851 122.331 26.5851C121.5 26.5851 120.877 26.7927 120.461 27.2081C120.046 27.6235 119.838 28.2466 119.838 28.8697V38.8389C119.838 39.462 119.631 40.0851 119.423 40.2928C119.215 40.7081 118.592 40.7081 117.761 40.7081H113.815V40.9158Z" fill="white"/>
<path d="M146.838 41.5389C143.1 41.5389 140.192 40.7081 138.115 38.8389C136.038 37.1774 135 34.6851 135 31.362C135 29.2851 135.415 27.6235 136.454 25.962C137.285 24.5081 138.738 23.262 140.4 22.4312C142.269 21.6004 144.346 21.1851 146.631 21.1851C148.5 21.1851 149.954 21.3927 151.2 21.8081C152.446 22.2235 153.692 22.6389 154.523 23.4697C154.731 23.6774 154.938 23.8851 154.938 24.0927C154.938 24.3004 154.731 24.5081 154.523 24.9235L152.862 27.8312C152.654 28.2466 152.446 28.4543 152.238 28.4543C152.031 28.4543 151.823 28.2466 151.408 28.0389C150.785 27.6235 149.954 27.2081 149.331 27.0004C148.708 26.7927 147.877 26.5851 147.046 26.5851C145.8 26.5851 144.554 27.0004 143.723 27.8312C142.892 28.662 142.477 29.9081 142.477 31.362C142.477 32.8158 142.892 34.062 143.723 34.8927C144.554 35.7235 145.592 36.1389 147.046 36.1389C147.877 36.1389 148.708 35.9312 149.331 35.7235C149.954 35.5158 150.785 35.1004 151.408 34.6851C151.823 34.4774 152.031 34.2697 152.238 34.2697C152.446 34.2697 152.654 34.4774 152.862 34.8927L154.731 38.0081C154.938 38.2158 154.938 38.4235 154.938 38.6312C154.938 38.8389 154.731 39.0466 154.523 39.2543C153.485 39.8774 152.238 40.5004 150.785 40.9158C150.162 41.3312 148.708 41.5389 146.838 41.5389Z" fill="white"/>
<path d="M165.738 41.5386C163.246 41.5386 161.169 40.7078 159.715 39.0463C158.261 37.3848 157.43 35.1001 157.43 32.1924C157.43 29.9078 157.846 28.0386 158.884 26.3771C159.922 24.7155 161.376 23.4694 163.246 22.4309C165.115 21.6001 167.399 20.9771 169.684 20.9771C171.761 20.9771 173.422 21.1847 175.084 21.6001C176.746 22.0155 177.992 22.6386 179.446 23.4694V39.4617C179.446 39.8771 179.446 40.2924 179.238 40.5001C179.03 40.7078 178.615 40.7078 178.199 40.7078H174.046C173.838 40.7078 173.422 40.7078 173.422 40.5001C173.215 40.2924 173.215 40.2924 173.007 40.0848L172.384 38.8386C171.553 39.6694 170.722 40.2924 169.684 40.7078C168.646 41.3309 167.399 41.5386 165.738 41.5386ZM168.853 36.1386C169.892 36.1386 170.722 35.9309 171.346 35.3078C171.969 34.8924 172.176 34.0617 172.176 33.2309V27.0001C171.761 26.7924 170.93 26.5847 170.307 26.5847C168.853 26.5847 167.815 27.0001 166.984 28.0386C166.153 29.0771 165.738 30.3232 165.738 32.1924C165.53 34.6847 166.569 36.1386 168.853 36.1386Z" fill="white"/>
<path d="M204.785 39.4614C204.992 39.6691 204.992 39.8768 204.992 40.0845C204.992 40.2921 204.992 40.4998 204.785 40.7075C204.577 40.9152 204.369 40.9152 204.162 40.9152H197.931C197.516 40.9152 197.308 40.9152 197.1 40.9152C196.892 40.9152 196.685 40.7075 196.477 40.4998L191.077 33.0229V38.8383C191.077 39.4614 190.869 40.0844 190.662 40.2921C190.246 40.7075 189.831 40.7075 189 40.7075H185.054C184.223 40.7075 183.808 40.4998 183.392 40.2921C183.185 39.8768 182.977 39.4614 182.977 38.8383V15.7844C182.977 15.1614 183.185 14.5383 183.392 14.3306C183.808 13.9152 184.223 13.7075 185.054 13.7075H189C189.831 13.7075 190.246 13.9152 190.662 14.3306C191.077 14.746 191.077 15.1614 191.077 15.7844V29.0768L196.269 22.2229C196.477 22.0152 196.685 21.8075 196.892 21.8075C197.1 21.8075 197.308 21.5998 197.723 21.5998H203.954C204.162 21.5998 204.369 21.5998 204.577 21.8075C204.785 22.0152 204.785 22.2229 204.785 22.4306C204.785 22.6383 204.785 22.846 204.577 23.0537L197.723 30.946L204.785 39.4614Z" fill="white"/>
<path d="M217.662 41.5382C215.377 41.5382 213.508 41.1229 211.639 40.4998C209.977 39.669 208.524 38.6306 207.485 37.1767C206.447 35.7229 206.031 33.8536 206.031 31.7767C206.031 28.4536 207.07 25.7536 208.939 24.0921C210.808 22.2229 213.716 21.3921 217.247 21.3921C220.777 21.3921 223.477 22.2229 225.139 24.0921C227.008 25.7536 227.839 28.2459 227.839 31.3613C227.839 32.6075 227.216 33.4382 226.177 33.4382H213.716C213.716 34.6844 214.131 35.5152 214.962 36.1382C215.793 36.7613 217.247 36.969 218.908 36.969C219.947 36.969 220.985 36.969 221.608 36.7613C222.439 36.5536 223.062 36.1382 223.893 35.9306C224.308 35.7229 224.516 35.7229 224.516 35.7229C224.724 35.7229 224.931 35.9306 225.139 36.1382L226.593 38.6306C226.8 38.8382 226.8 39.0459 226.8 39.2536C226.8 39.4613 226.593 39.669 226.385 39.8767C225.347 40.4998 224.1 41.1229 222.647 41.5382C220.985 41.3306 219.531 41.5382 217.662 41.5382ZM220.777 29.0767C220.777 28.0382 220.57 27.2075 219.947 26.7921C219.324 26.169 218.493 25.9613 217.247 25.9613C216 25.9613 215.17 26.169 214.547 26.7921C213.924 27.4152 213.716 28.0382 213.716 29.0767H220.777Z" fill="white"/>
<path d="M241.754 41.5385C239.47 41.5385 237.393 41.3308 235.316 40.9154C233.239 40.5 231.785 39.6692 230.539 38.8385C230.124 38.6308 229.916 38.2154 229.916 38.0077C229.916 37.8 229.916 37.5923 230.124 37.3846L231.993 34.2692C232.201 33.8538 232.408 33.8538 232.616 33.8538C232.824 33.8538 233.031 33.8538 233.239 34.0615C234.278 34.6846 235.316 35.1 236.562 35.5154C237.808 35.9308 239.054 36.1385 240.301 36.1385C241.547 36.1385 242.378 35.9308 243.001 35.5154C243.624 35.1 243.831 34.4769 243.831 33.6462C243.831 32.8154 243.416 32.1923 242.793 31.7769C242.17 31.3615 240.924 30.7385 239.054 30.1154C236.354 29.0769 234.278 28.0385 232.824 26.7923C231.37 25.5462 230.539 23.6769 230.539 21.6C230.539 18.9 231.578 17.0308 233.447 15.5769C235.316 14.1231 237.808 13.5 240.924 13.5C243.208 13.5 245.078 13.7077 246.531 14.1231C248.193 14.5385 249.439 15.1615 250.478 15.7846C250.893 16.2 251.101 16.4077 251.101 16.8231C251.101 17.0308 251.101 17.2385 250.893 17.4462L249.024 20.5615C248.816 20.9769 248.608 20.9769 248.401 20.9769C248.193 20.9769 247.985 20.9769 247.778 20.7692C246.324 19.7308 244.454 19.3154 242.17 19.3154C240.924 19.3154 240.093 19.5231 239.47 19.9385C238.847 20.3538 238.639 20.9769 238.639 21.8077C238.639 22.4308 238.847 22.8462 239.054 23.2615C239.47 23.6769 239.885 23.8846 240.301 24.3C240.924 24.5077 241.754 24.9231 242.793 25.3385L243.624 25.5462C245.493 26.3769 247.154 27 248.193 27.8308C249.439 28.4538 250.27 29.4923 250.893 30.5308C251.516 31.5692 251.724 32.8154 251.724 34.2692C251.724 36.5538 250.893 38.6308 249.024 39.8769C247.778 40.7077 245.078 41.5385 241.754 41.5385Z" fill="white"/>
<path d="M260.654 40.915C260.238 40.915 260.031 40.915 259.823 40.7073C259.615 40.4996 259.408 40.2919 259.408 39.8765L254.215 22.6381C254.215 22.4304 254.215 22.4304 254.215 22.2227C254.215 21.8073 254.423 21.5996 255.046 21.5996H260.238C260.654 21.5996 260.861 21.5996 261.069 21.8073C261.277 22.015 261.277 22.015 261.485 22.4304L263.561 31.5688L266.261 24.2996C266.469 23.8842 266.469 23.6765 266.677 23.6765C266.885 23.4688 267.092 23.4688 267.508 23.4688H270C270.415 23.4688 270.623 23.4688 270.831 23.6765C271.038 23.8842 271.038 24.0919 271.246 24.2996L273.946 31.5688L276.231 22.4304C276.231 22.2227 276.438 22.015 276.646 21.8073C276.854 21.5996 277.061 21.5996 277.269 21.5996H282.669C283.292 21.5996 283.5 21.8073 283.5 22.2227C283.5 22.2227 283.5 22.4304 283.5 22.6381L278.308 39.8765C278.1 40.2919 278.1 40.4996 277.892 40.7073C277.685 40.915 277.477 40.915 277.061 40.915H273.115C272.7 40.915 272.492 40.915 272.285 40.7073C272.077 40.4996 271.869 40.2919 271.869 39.8765L269.169 32.6073L266.469 39.8765C266.262 40.2919 266.262 40.4996 266.054 40.7073C265.846 40.915 265.638 40.915 265.223 40.915H260.654Z" fill="white"/>
<path d="M293.054 41.5386C290.561 41.5386 288.485 40.7078 287.031 39.0463C285.577 37.3848 284.746 35.1001 284.746 32.1924C284.746 29.9078 285.161 28.0386 286.2 26.3771C287.238 24.7155 288.692 23.4694 290.561 22.4309C292.431 21.6001 294.715 20.9771 297 20.9771C299.077 20.9771 300.738 21.1847 302.4 21.6001C304.061 22.0155 305.308 22.6386 306.761 23.4694V39.4617C306.761 39.8771 306.761 40.2924 306.554 40.5001C306.346 40.7078 305.931 40.7078 305.515 40.7078H301.361C301.154 40.7078 300.946 40.7078 300.738 40.5001C300.531 40.2924 300.531 40.2924 300.323 40.0848L299.7 38.8386C298.869 39.6694 298.038 40.2924 297 40.7078C295.961 41.3309 294.715 41.5386 293.054 41.5386ZM296.169 36.1386C297.208 36.1386 298.038 35.9309 298.661 35.3078C299.285 34.8924 299.492 34.0617 299.492 33.2309V27.0001C299.077 26.7924 298.246 26.5847 297.623 26.5847C296.169 26.5847 295.131 27.0001 294.3 28.0386C293.469 29.0771 293.054 30.3232 293.054 32.1924C292.846 34.6847 293.885 36.1386 296.169 36.1386Z" fill="white"/>
<path d="M312.369 49.0152C311.539 49.0152 311.123 48.8075 310.708 48.5998C310.5 48.1844 310.292 47.769 310.292 47.1459V24.2998C311.539 23.469 312.993 22.6382 314.862 22.2229C316.731 21.5998 318.6 21.3921 320.469 21.3921C328.569 21.3921 332.516 24.7152 332.516 31.569C332.516 34.6844 331.685 37.1767 330.023 39.0459C328.362 40.9152 325.869 41.7459 322.754 41.7459C321.923 41.7459 321.092 41.5382 320.262 41.3306C319.431 41.1229 318.808 40.9152 318.185 40.4998V47.1459C318.185 47.769 317.977 48.3921 317.769 48.5998C317.354 49.0152 316.939 49.0152 316.108 49.0152H312.369ZM321.093 36.1382C322.339 36.1382 323.169 35.7229 323.585 34.8921C324.208 34.0613 324.416 32.8152 324.416 31.3613C324.416 29.6998 324 28.4536 323.377 27.6229C322.754 26.9998 321.716 26.5844 320.262 26.5844C319.431 26.5844 318.6 26.7921 318.185 26.9998V33.2306C318.185 34.0613 318.393 34.8921 319.016 35.3075C319.431 35.9306 320.262 36.1382 321.093 36.1382Z" fill="white"/>
<path fill-rule="evenodd" clip-rule="evenodd" d="M9.34615 9.13858C8.51538 4.98473 11.8385 1.03857 15.9923 1.03857C19.7308 1.03857 22.8462 4.15396 22.8462 7.89242V16.2001C23.8846 16.2001 24.7154 16.2001 25.7538 16.2001C26.5846 16.2001 27.6231 16.2001 28.4538 16.2001V7.89242C28.4538 4.15396 31.5692 1.03857 35.3077 1.03857C39.4615 1.03857 42.7846 4.98473 41.9538 9.13858L40.0846 18.9001C46.3154 21.6001 51.0923 26.377 51.0923 32.4001V35.9309C51.0923 40.9155 47.7692 45.0693 43.2 47.7693C38.6308 50.677 32.4 52.3386 25.5462 52.3386C18.6923 52.3386 12.4615 50.677 7.89231 47.7693C3.32308 45.0693 0 40.9155 0 35.9309V32.4001C0 26.377 4.77692 21.6001 11.0077 18.9001L9.34615 9.13858ZM37.8 20.354L39.8769 8.93088C40.5 6.02319 38.2154 3.32319 35.3077 3.32319C32.6077 3.32319 30.5308 5.40012 30.5308 8.10012V18.6924C29.9077 18.6924 29.0769 18.4847 28.4538 18.4847C27.6231 18.4847 26.5846 18.4847 25.7538 18.4847C24.7154 18.4847 23.8846 18.4847 22.8462 18.6924C22.2231 18.6924 21.3923 18.9001 20.7692 18.9001V8.30781C20.7692 5.60781 18.6923 3.53088 15.9923 3.53088C13.0846 3.53088 10.8 6.23089 11.4231 9.13858L13.5 20.7693C6.85385 23.2617 2.28462 27.8309 2.28462 33.0232V36.554C2.28462 44.4463 12.6692 50.8847 25.5462 50.8847C38.4231 50.8847 48.8077 44.4463 48.8077 36.554V33.0232C49.0154 27.4155 44.4462 22.8463 37.8 20.354Z" fill="#633001"/>
<path d="M49.0158 36.1387C49.0158 44.031 38.6311 50.4695 25.7542 50.4695C12.8773 50.4695 2.49268 44.031 2.49268 36.1387V32.6079H49.2234V36.1387H49.0158Z" fill="#FEDC90"/>
<path fill-rule="evenodd" clip-rule="evenodd" d="M11.4228 8.72342C10.7997 5.81572 13.0843 3.11572 15.992 3.11572C18.692 3.11572 20.7689 5.19264 20.7689 7.89264V18.6926C22.4305 18.485 24.092 18.2773 25.7536 18.2773C27.4151 18.2773 29.0766 18.485 30.5305 18.485V7.89264C30.5305 5.19264 32.6074 3.11572 35.3074 3.11572C38.2151 3.11572 40.4997 5.81572 39.8766 8.72342L37.7997 20.1465C44.6536 22.6388 49.2228 27.208 49.2228 32.4003C49.2228 40.2926 38.8382 46.7311 25.9612 46.7311C13.0843 46.7311 2.69971 40.2926 2.69971 32.4003C2.69971 27.208 7.26894 22.6388 13.9151 20.1465L11.4228 8.72342Z" fill="#D1884F"/>
<path d="M19.3157 31.5687C19.3157 33.6456 18.0695 35.5149 16.8234 35.5149C15.5772 35.5149 14.3311 33.8533 14.3311 31.5687C14.3311 29.4918 15.5772 27.6226 16.8234 27.6226C18.0695 27.6226 19.3157 29.2841 19.3157 31.5687Z" fill="#633001"/>
<path d="M37.177 31.5687C37.177 33.6456 35.9308 35.5149 34.6847 35.5149C33.2308 35.5149 32.1924 33.8533 32.1924 31.5687C32.1924 29.4918 33.4385 27.6226 34.6847 27.6226C35.9308 27.6226 37.177 29.2841 37.177 31.5687Z" fill="#633001"/>
</svg>
