<svg width="334" height="80" viewBox="0 0 334 80" fill="none" xmlns="http://www.w3.org/2000/svg">
<path d="M48.0315 15.3035C47.8206 15.1301 47.597 14.9631 47.3605 14.809C45.6353 15.7851 43.6162 17.2236 41.9101 19.5548C42.5747 18.142 43.9612 15.9328 46.204 14.0062L46.0123 13.6209C41.2648 11.3668 40.5427 11.1677 38.2616 11.0971L38.2999 10.2815H38.2744L36.185 8.16226L34.0955 10.2815L34.1275 11.1099L33.4566 11.1292C32.1339 11.1741 31.0157 11.4374 29.8464 11.9962L26.4087 13.6273C26.4854 13.7237 26.5621 13.8136 26.6324 13.9099L26.4087 13.6273L26.2426 14.0961C28.6387 16.0677 30.102 18.386 30.792 19.8566C28.9582 17.3521 26.7601 15.875 24.9583 14.8989C24.6643 15.098 24.3896 15.3163 24.1148 15.5475C24.0381 15.4833 23.9551 15.419 23.8656 15.3548C3.68693 12.2659 5.04155 0.192635 3.20131 0.0128209C2.6518 -0.0385546 2.64541 0.693546 2.46011 1.10455C-1.46956 9.83839 5.83387 20.2676 11.444 23.0868C17.0542 25.9061 16.805 25.1354 18.1021 24.7116C12.6964 29.1299 29.0349 32.7069 32.0444 37.0224C32.2617 37.3307 32.8176 37.2793 33.1115 37.0417C35.0093 35.5197 37.5204 35.2885 39.7249 37.1509C39.9804 37.3692 40.6002 37.472 40.6769 37.1445C41.4884 33.7023 59.3604 28.6739 54.3637 24.885C55.6097 24.9749 54.9132 25.7391 60.1655 23.0997C71.8139 17.2493 70.4593 -0.468824 68.4082 0.0256648C66.6191 0.436669 67.9098 12.1503 48.0315 15.3035ZM18.6708 63.2625C24.9519 60.424 29.7953 56.3782 33.9486 51.7544C35.0412 50.5342 37.6738 50.5599 38.7983 51.7544C43.0667 56.2754 48.0762 60.0644 54.172 63.0698C55.6991 63.8212 56.3509 65.1505 55.0154 66.1588L38.792 78.4311C37.4565 79.4394 35.2776 79.4394 33.9422 78.4311L18.6708 66.9166C17.3353 65.9147 17.1181 63.9689 18.6708 63.2625ZM29.1243 59.9488L35.3799 55.2351C35.9294 54.8241 36.8175 54.8241 37.3671 55.2351L43.6226 59.9488C44.1721 60.3598 44.2488 61.1368 43.6226 61.4451L37.3671 64.5148C36.7409 64.823 36.006 64.823 35.3799 64.5148L29.1243 61.4451C28.4981 61.1432 28.5812 60.3598 29.1243 59.9488ZM33.1626 47.0535L22.9583 42.982C22.4471 42.6738 21.789 42.7251 21.3417 43.1104C20.8944 43.4958 20.7858 44.093 21.0797 44.5875C21.7506 45.7178 22.7666 46.3407 23.61 47.0792L28.5493 51.3691C28.6259 51.4333 28.6259 51.5168 28.6515 51.6067C29.0477 53.0259 17.8146 60.1157 16.4216 58.1892C16.1341 57.791 18.0446 46.315 17.7571 45.9104L14.5366 41.3894C14.2235 40.9527 14.083 40.4967 14.1021 39.9701L14.3577 32.906C14.3705 32.5207 14.7219 32.3473 15.0414 32.0904C17.5462 30.0803 31.5972 38.4096 33.7249 40.9848L33.8208 40.7985C34.268 39.938 35.1562 39.4178 36.1913 39.4178C36.2489 39.4178 36.3064 39.4178 36.3639 39.4243C36.4214 39.4178 36.4789 39.4178 36.5364 39.4178C37.5715 39.4243 38.4597 39.938 38.907 40.7985L39.0028 40.9848C41.3287 38.5766 55.418 29.7528 57.6671 31.5188C57.9866 31.7693 58.3317 31.9491 58.3508 32.3344L58.6256 39.9765C58.6448 40.5031 58.5042 40.9591 58.1911 41.3958L54.9707 45.9168C54.6831 46.3214 58.2933 58.247 57.8972 58.5552C55.3093 60.5974 42.7408 52.2681 44.1913 50.9902C44.2679 50.9259 44.2168 50.8103 44.2935 50.7526L49.1241 47.0792C50.0187 46.3985 50.9835 45.7242 51.6544 44.5875C51.9484 44.093 51.8461 43.4958 51.3925 43.1104C50.9452 42.7251 50.287 42.6738 49.7759 42.982L39.5715 47.0535L38.9453 49.3783C38.8303 49.8021 38.3447 48.7682 36.3639 48.7682C34.939 48.7489 33.8911 49.8021 33.7824 49.3783L33.1626 47.0535Z" fill="white"/>
<path d="M105.811 45.4173V44.7387C111.749 44.4843 114.039 41.8125 114.039 37.1474C114.039 31.931 111.325 28.0293 102.164 28.0293H92.0283V56.8679H97.5416V48.0467H108.95V56.8679H114.463V45.4173H105.811ZM97.5416 42.5334V33.5426H102.164C107.084 33.5426 108.526 34.2636 108.526 37.9956C108.526 41.6004 107.084 42.5334 102.164 42.5334H97.5416Z" fill="white"/>
<path d="M128.867 56.8679C135.738 56.8679 139.427 52.1604 139.427 45.9262C139.427 39.692 135.738 35.0269 128.867 35.0269C121.997 35.0269 118.307 39.692 118.307 45.9262C118.307 52.1604 121.997 56.8679 128.867 56.8679ZM128.867 51.3546C125.135 51.3546 123.821 50.1672 123.821 45.9262C123.821 41.6853 125.135 40.5402 128.867 40.5402C132.599 40.5402 133.914 41.6853 133.914 45.9262C133.914 50.1672 132.599 51.3546 128.867 51.3546Z" fill="white"/>
<path d="M158.184 35.0269V44.7812C158.184 48.1739 156.657 49.2342 153.349 49.2342C150.041 49.2342 148.514 48.1739 148.514 44.7812V35.0269H143.001V44.9932C143.001 50.8033 145.63 54.7474 152.289 54.7474C154.833 54.7474 156.911 53.8144 158.184 52.4149V58.1402H145.885V63.6534H163.697V35.0269H158.184Z" fill="white"/>
<path d="M186.716 51.3546V35.0269H170.176V40.5402H181.203V44.5691C180.142 43.424 178.488 42.4486 175.308 42.4486C170.134 42.4486 167.716 45.7566 167.716 49.6583C167.716 53.5599 170.134 56.8679 175.308 56.8679C178.488 56.8679 180.142 55.8501 181.203 54.7474V56.8679H189.472V51.3546H186.716ZM177.216 51.8636C174.332 51.8636 173.23 51.3546 173.23 49.6583C173.23 47.9619 174.332 47.453 177.216 47.453C180.1 47.453 181.203 47.9619 181.203 49.6583C181.203 51.3546 180.1 51.8636 177.216 51.8636Z" fill="white"/>
<path d="M193.497 27.1812V56.8679H199.01V27.1812H193.497Z" fill="white"/>
<path d="M214.235 28.0293H204.099V56.8679H214.235C223.82 56.8679 227.806 51.9484 227.806 42.4486C227.806 32.9065 223.82 28.0293 214.235 28.0293ZM214.235 51.3546H209.612V33.5426H214.235C220.851 33.5426 222.293 35.451 222.293 42.4486C222.293 49.2766 220.851 51.3546 214.235 51.3546Z" fill="white"/>
<path d="M250.831 45.5021C250.831 39.5648 248.202 35.0269 241.331 35.0269C234.291 35.0269 231.662 39.904 231.662 45.9686C231.662 49.9551 233.062 56.8679 242.858 56.8679C244.47 56.8679 246.081 56.8679 249.389 56.1045V50.6761C246.463 51.3546 244.555 51.3546 243.282 51.3546C239.296 51.3546 237.896 50.1672 237.43 48.0467H250.831V45.5021ZM241.247 40.5402C243.876 40.5402 245.106 41.3884 245.276 43.8057H237.218C237.472 41.5156 238.702 40.5402 241.247 40.5402Z" fill="white"/>
<path d="M254.409 54.5778C257.505 56.2318 260.516 56.8679 263.824 56.8679C268.574 56.8679 272.645 54.7898 272.645 50.0399C272.645 45.8838 270.228 44.6539 263.867 43.5089C260.474 42.8727 259.922 42.7031 259.922 41.7277C259.922 40.8795 260.643 40.5402 262.17 40.5402C264.503 40.5402 267.853 41.2187 270.949 42.3214V36.8081C268.871 35.7903 265.436 35.0269 262.594 35.0269C258.056 35.0269 254.409 37.2322 254.409 41.3884C254.409 45.2053 256.318 47.0713 262.976 48.0467C266.369 48.598 267.132 48.7677 267.132 49.8703C267.132 50.8457 266.284 51.3546 264.248 51.3546C261.11 51.3546 258.268 50.5913 254.409 48.598V54.5778Z" fill="white"/>
<path d="M277.074 27.1812V31.4221H282.587V27.1812H277.074ZM277.074 35.0269V56.8679H282.587V35.0269H277.074Z" fill="white"/>
<path d="M302.642 35.0269V37.3595C301.369 36.172 299.503 35.0269 296.45 35.0269C290.088 35.0269 287.035 39.3951 287.035 44.866C287.035 50.3792 290.088 54.7474 296.45 54.7474C299.503 54.7474 301.369 53.6024 302.642 52.4149V58.1402H290.767V63.6534H308.155V35.0269H302.642ZM297.595 49.2342C293.863 49.2342 292.548 48.1739 292.548 44.866C292.548 41.6004 293.863 40.5402 297.595 40.5402C301.327 40.5402 302.642 41.6004 302.642 44.866C302.642 48.1739 301.327 49.2342 297.595 49.2342Z" fill="white"/>
<path d="M332.986 35.0269H313.054V56.8679H318.567V40.5402H327.473V56.8679H332.986V35.0269Z" fill="white"/>
</svg>
