<svg width="36" height="47" viewBox="0 0 36 47" fill="none" xmlns="http://www.w3.org/2000/svg">
<g clip-path="url(#clip0_118_4400)">
<mask id="path-1-outside-1_118_4400" maskUnits="userSpaceOnUse" x="-0.233887" y="-0.235352" width="37" height="47" fill="black">
<rect fill="white" x="-0.233887" y="-0.235352" width="37" height="47"/>
<path fill-rule="evenodd" clip-rule="evenodd" d="M23.941 21.2848L17.9574 27.2684C17.6273 27.5985 17.1957 27.7677 16.7641 27.7677C16.324 27.7677 15.8923 27.5985 15.5623 27.2684L12.1177 23.8238C11.4575 23.1636 11.4575 22.0888 12.1177 21.4287C12.7778 20.7685 13.8527 20.7685 14.5128 21.4287L16.7641 23.6799L21.5459 18.8896C22.206 18.2295 23.2809 18.2295 23.941 18.8896C24.6012 19.5498 24.6012 20.6246 23.941 21.2848ZM30.8984 8.91118L19.1343 3.03759C18.4234 2.67367 17.577 2.67367 16.8661 3.03759L5.10201 8.91118C3.6717 9.63057 2.76611 11.0947 2.76611 12.7028V26.3288C2.76611 31.8639 5.76215 36.9588 10.6032 39.6502L16.7646 43.0694C17.5347 43.501 18.4657 43.501 19.2359 43.0694L25.3972 39.6502C30.2383 36.9588 33.2343 31.8639 33.2343 26.3288V12.7028C33.2343 11.0947 32.3287 9.63057 30.8984 8.91118Z"/>
</mask>
<path fill-rule="evenodd" clip-rule="evenodd" d="M23.941 21.2848L17.9574 27.2684C17.6273 27.5985 17.1957 27.7677 16.7641 27.7677C16.324 27.7677 15.8923 27.5985 15.5623 27.2684L12.1177 23.8238C11.4575 23.1636 11.4575 22.0888 12.1177 21.4287C12.7778 20.7685 13.8527 20.7685 14.5128 21.4287L16.7641 23.6799L21.5459 18.8896C22.206 18.2295 23.2809 18.2295 23.941 18.8896C24.6012 19.5498 24.6012 20.6246 23.941 21.2848ZM30.8984 8.91118L19.1343 3.03759C18.4234 2.67367 17.577 2.67367 16.8661 3.03759L5.10201 8.91118C3.6717 9.63057 2.76611 11.0947 2.76611 12.7028V26.3288C2.76611 31.8639 5.76215 36.9588 10.6032 39.6502L16.7646 43.0694C17.5347 43.501 18.4657 43.501 19.2359 43.0694L25.3972 39.6502C30.2383 36.9588 33.2343 31.8639 33.2343 26.3288V12.7028C33.2343 11.0947 32.3287 9.63057 30.8984 8.91118Z" fill="#632F00"/>
<path d="M23.941 21.2848L26.0623 23.4061L23.941 21.2848ZM17.9574 27.2684L15.8361 25.1471L15.8361 25.1471L17.9574 27.2684ZM15.5623 27.2684L17.6836 25.1471L17.6836 25.1471L15.5623 27.2684ZM12.1177 23.8238L14.239 21.7025L12.1177 23.8238ZM12.1177 21.4287L14.239 23.55L12.1177 21.4287ZM14.5128 21.4287L12.3915 23.55L14.5128 21.4287ZM16.7641 23.6799L14.6427 25.8012L16.7659 27.9244L18.8873 25.7994L16.7641 23.6799ZM21.5459 18.8896L19.4246 16.7683L19.4227 16.7702L21.5459 18.8896ZM23.941 18.8896L26.0623 16.7683L26.0623 16.7683L23.941 18.8896ZM30.8984 8.91118L32.2464 6.23107L32.2385 6.22713L30.8984 8.91118ZM19.1343 3.03759L17.7673 5.70804L17.7807 5.71491L17.7942 5.72165L19.1343 3.03759ZM16.8661 3.03759L18.2062 5.72165L18.2197 5.71491L18.2331 5.70804L16.8661 3.03759ZM5.10201 8.91118L3.76191 6.22712L3.75403 6.23108L5.10201 8.91118ZM10.6032 39.6502L9.1455 42.2722L9.1475 42.2733L10.6032 39.6502ZM16.7646 43.0694L18.2313 40.4524L18.2203 40.4462L16.7646 43.0694ZM19.2359 43.0694L17.7801 40.4462L17.7692 40.4524L19.2359 43.0694ZM25.3972 39.6502L26.8529 42.2733L26.8549 42.2722L25.3972 39.6502ZM21.8197 19.1635L15.8361 25.1471L20.0787 29.3897L26.0623 23.4061L21.8197 19.1635ZM15.8361 25.1471C16.0758 24.9073 16.4103 24.7677 16.7641 24.7677V30.7677C17.9811 30.7677 19.1789 30.2896 20.0787 29.3897L15.8361 25.1471ZM16.7641 24.7677C17.1014 24.7677 17.4383 24.9018 17.6836 25.1471L13.4409 29.3897C14.3464 30.2951 15.5465 30.7677 16.7641 30.7677V24.7677ZM17.6836 25.1471L14.239 21.7025L9.99635 25.9451L13.4409 29.3897L17.6836 25.1471ZM14.239 21.7025C14.7504 22.2139 14.7504 23.0385 14.239 23.55L9.99635 19.3073C8.16463 21.1391 8.16463 24.1134 9.99635 25.9451L14.239 21.7025ZM14.239 23.55C13.7276 24.0614 12.9029 24.0614 12.3915 23.55L16.6341 19.3073C14.8024 17.4756 11.8281 17.4756 9.99635 19.3073L14.239 23.55ZM12.3915 23.55L14.6427 25.8012L18.8854 21.5586L16.6341 19.3073L12.3915 23.55ZM18.8873 25.7994L23.6691 21.0091L19.4227 16.7702L14.6409 21.5605L18.8873 25.7994ZM23.6672 21.011C23.1558 21.5224 22.3311 21.5224 21.8197 21.011L26.0623 16.7683C24.2306 14.9366 21.2563 14.9366 19.4246 16.7683L23.6672 21.011ZM21.8197 21.011C21.3083 20.4995 21.3083 19.6749 21.8197 19.1635L26.0623 23.4061C27.8941 21.5744 27.8941 18.6 26.0623 16.7683L21.8197 21.011ZM32.2385 6.22713L20.4744 0.353539L17.7942 5.72165L29.5583 11.5952L32.2385 6.22713ZM20.5013 0.367147C18.932 -0.436184 17.0684 -0.436185 15.4991 0.367148L18.2331 5.70804C18.0857 5.78352 17.9147 5.78352 17.7673 5.70804L20.5013 0.367147ZM15.526 0.353539L3.76191 6.22713L6.4421 11.5952L18.2062 5.72165L15.526 0.353539ZM3.75403 6.23108C1.3119 7.45937 -0.233887 9.9598 -0.233887 12.7028H5.76611C5.76611 12.2297 6.03149 11.8018 6.44999 11.5913L3.75403 6.23108ZM-0.233887 12.7028V26.3288H5.76611V12.7028H-0.233887ZM-0.233887 26.3288C-0.233887 32.9532 3.35258 39.0517 9.1455 42.2722L12.0609 37.0282C8.17172 34.866 5.76611 30.7746 5.76611 26.3288H-0.233887ZM9.1475 42.2733L15.3089 45.6926L18.2203 40.4462L12.0589 37.027L9.1475 42.2733ZM15.2979 45.6864C16.9792 46.6287 19.0213 46.6287 20.7025 45.6864L17.7692 40.4524C17.9101 40.3734 18.0903 40.3734 18.2312 40.4524L15.2979 45.6864ZM20.6916 45.6926L26.8529 42.2733L23.9415 37.027L17.7802 40.4462L20.6916 45.6926ZM26.8549 42.2722C32.6478 39.0517 36.2343 32.9532 36.2343 26.3288H30.2343C30.2343 30.7746 27.8287 34.866 23.9395 37.0282L26.8549 42.2722ZM36.2343 26.3288V12.7028H30.2343V26.3288H36.2343ZM36.2343 12.7028C36.2343 9.9598 34.6885 7.45937 32.2464 6.23108L29.5504 11.5913C29.9689 11.8018 30.2343 12.2297 30.2343 12.7028H36.2343Z" fill="#FEC12B" mask="url(#path-1-outside-1_118_4400)"/>
</g>
<defs>
<clipPath id="clip0_118_4400">
<rect width="36" height="47" fill="white"/>
</clipPath>
</defs>
</svg>
