<svg width="33" height="32" viewBox="0 0 33 32" fill="none" xmlns="http://www.w3.org/2000/svg">
<path d="M12.6784 28.6762H11.6784V28.6751V23.3368V22.9802L11.904 22.7041L17.766 15.5285L10.2108 22.0631L9.74639 22.4648L9.17804 22.2323L3.2018 19.7875C2.83696 19.6599 2.51972 19.4231 2.29345 19.1089C2.0689 18.797 1.94518 18.4244 1.93812 18.041C1.91336 17.6826 1.99051 17.324 2.16119 17.007C2.33687 16.6808 2.60385 16.413 2.92923 16.2364L28.2751 1.62883C28.594 1.43873 28.9609 1.34417 29.3321 1.35654C29.7075 1.36906 30.0711 1.49037 30.3789 1.70572L30.379 1.70578C30.6761 1.91381 30.9281 2.19187 31.0831 2.54893C31.2375 2.90435 31.2677 3.2734 31.2242 3.6214L31.1147 4.49736H31.0617L27.2957 27.044C27.2955 27.0451 27.2954 27.0462 27.2952 27.0474C27.2479 27.3376 27.1358 27.6135 26.9671 27.8544C26.8001 28.0931 26.5819 28.2913 26.3285 28.4347C26.0667 28.587 25.7728 28.6757 25.4704 28.6939C25.169 28.712 24.8675 28.6594 24.5902 28.5404L18.3908 26.0085L15.1918 29.9036C14.8071 30.4196 14.2383 30.6477 13.654 30.6485C13.6529 30.6485 13.6519 30.6485 13.6508 30.6485V29.6485M12.6784 28.6762C12.6782 28.8713 12.7377 29.0618 12.849 29.2221M12.6784 28.6762V23.3368V28.6762ZM12.849 29.2221L12.0162 29.7756C12.0181 29.7784 12.0199 29.7812 12.0218 29.784C12.0237 29.7868 12.0257 29.7896 12.0276 29.7924L12.849 29.2221ZM12.849 29.2221C12.9368 29.3541 13.056 29.4622 13.196 29.5367C13.336 29.6111 13.4923 29.6496 13.6508 29.6485M13.6508 29.6485C13.9749 29.6485 14.2308 29.5291 14.4014 29.2903L13.6508 29.6485Z" fill="white" stroke="#37BCF7" stroke-width="2"/>
</svg>
