<svg width="32" height="37" viewBox="0 0 32 37" fill="none" xmlns="http://www.w3.org/2000/svg">
<path d="M16.6933 2.02712L14.3321 2.06365L15.7067 3.43901C15.6836 6.74027 15.6852 10.0462 15.6868 13.3516C15.6878 15.2738 15.6887 17.1959 15.6848 19.1168C15.6803 19.7794 15.681 20.4343 15.6817 21.0844C15.6834 22.8107 15.6851 24.5024 15.5913 26.2112L15.5905 26.2242L15.5902 26.2372C15.584 26.4528 15.4718 26.6619 15.1818 27.174C14.571 28.1589 13.4562 28.8161 12.34 28.8281L12.3012 28.8285L12.2625 28.8319C10.6129 28.9781 8.95786 27.6005 8.68197 25.9121C8.67927 25.802 8.67616 25.6985 8.67322 25.6009C8.65452 24.9799 8.64293 24.5946 8.79057 24.233L8.79981 24.2104L8.80793 24.1873C9.07202 23.4377 9.57779 22.7823 10.2276 22.3612L10.2411 22.3524L10.2543 22.3433C11.1101 21.7488 12.3204 21.6289 13.401 21.9785L14.7088 22.4015V21.027C14.7088 20.227 14.7228 19.3931 14.737 18.5493C14.7564 17.3946 14.7761 16.2212 14.7607 15.0903L14.7495 14.2717L13.9447 14.1211C10.7339 13.5202 7.33726 14.533 4.91207 16.6425C2.76583 18.4639 1.38933 21.1298 1.1252 23.9218L1.12271 23.9481L1.12162 23.9746C1.09303 24.6639 1.10496 25.3611 1.13791 26.0479L1.13887 26.0681L1.14065 26.0881C1.44611 29.5412 3.53211 32.7305 6.49282 34.4764L6.4929 34.4764C8.26563 35.5215 10.3577 36.1001 12.4746 35.9835C15.905 35.9192 19.2193 34.0886 21.1394 31.2781C22.3344 29.582 23.0055 27.547 23.1192 25.5087L23.1205 25.4862L23.1207 25.4636C23.1478 22.8977 23.1461 20.322 23.1444 17.7497C23.144 17.0204 23.1435 16.2913 23.1437 15.5627C23.3846 15.6933 23.632 15.818 23.8861 15.9333C25.7731 16.827 27.8409 17.2499 29.874 17.3165L30.9068 17.3503V16.317V10.948V10.0534L30.0177 9.95417C28.081 9.73804 26.2265 9.11031 24.959 7.85304L24.9591 7.85298L24.9495 7.84372C23.6819 6.61941 23.016 4.80526 22.9204 2.94862L22.8712 1.99119L21.9125 2.00004C21.193 2.00669 20.4572 2.00773 19.7158 2.00878C18.7096 2.01021 17.6932 2.01165 16.6933 2.02712Z" fill="white" stroke="#3E3E3E" stroke-width="2"/>
</svg>
