<svg width="36" height="33" viewBox="0 0 36 33" fill="none" xmlns="http://www.w3.org/2000/svg">
<path d="M33.3988 8.46432L34.1137 8.14883L33.6444 7.21036L33.6397 7.20096L32.8691 5.6597L32.5488 6.1402C32.6548 5.89966 32.7485 5.65241 32.829 5.39924L33.6249 2.89444L31.3652 4.23664C30.3571 4.83547 29.2559 5.28867 28.0873 5.57296C26.7608 4.36507 24.9935 3.62646 23.0552 3.62646C18.936 3.62646 15.5935 6.969 15.5935 11.0881C15.5935 11.2118 15.5964 11.335 15.6023 11.4577C11.0229 10.9085 6.99264 8.57694 4.21982 5.1743L3.30657 4.05362L2.58006 5.30346C1.93973 6.40505 1.57053 7.6868 1.57053 9.05329C1.57053 10.251 1.85303 11.3836 2.3548 12.3872L1.51883 11.9242V13.6211V13.6213V13.6214V13.6216V13.6218V13.6219V13.6221V13.6222V13.6224V13.6226V13.6227V13.6229V13.6231V13.6232V13.6234V13.6236V13.6237V13.6239V13.6241V13.6242V13.6244V13.6245V13.6247V13.6249V13.625V13.6252V13.6254V13.6255V13.6257V13.6258V13.626V13.6262V13.6263V13.6265V13.6267V13.6268V13.627V13.6271V13.6273V13.6275V13.6276V13.6278V13.6279V13.6281V13.6283V13.6284V13.6286V13.6287V13.6289V13.6291V13.6292V13.6294V13.6295V13.6297V13.6299V13.63V13.6302V13.6303V13.6305V13.6307V13.6308V13.631V13.6311V13.6313V13.6315V13.6316V13.6318V13.6319V13.6321V13.6323V13.6324V13.6326V13.6327V13.6329V13.6331V13.6332V13.6334V13.6335V13.6337V13.6338V13.634V13.6342V13.6343V13.6345V13.6346V13.6348V13.6349V13.6351V13.6353V13.6354V13.6356V13.6357V13.6359V13.636V13.6362V13.6364V13.6365V13.6367V13.6368V13.637V13.6371V13.6373V13.6375V13.6376V13.6378V13.6379V13.6381V13.6382V13.6384V13.6386V13.6387V13.6389V13.639V13.6392V13.6393V13.6395V13.6396V13.6398V13.64V13.6401V13.6403V13.6404V13.6406V13.6407V13.6409V13.641V13.6412V13.6414V13.6415V13.6417V13.6418V13.642V13.6421V13.6423V13.6424V13.6426V13.6427V13.6429V13.6431V13.6432V13.6434V13.6435V13.6437V13.6438V13.644V13.6441V13.6443V13.6444V13.6446V13.6447V13.6449V13.6451V13.6452V13.6454V13.6455V13.6457V13.6458V13.646V13.6461V13.6463V13.6464V13.6466V13.6467V13.6469V13.6471V13.6472V13.6474V13.6475V13.6477V13.6478V13.648V13.6481V13.6483V13.6484V13.6486V13.6487V13.6489V13.649V13.6492V13.6493V13.6495V13.6497V13.6498V13.65V13.6501V13.6503V13.6504V13.6506V13.6507V13.6509V13.651V13.6512V13.6513V13.6515V13.6516V13.6518V13.6519V13.6521V13.6522V13.6524V13.6525V13.6527V13.6528V13.653V13.6532V13.6533V13.6535V13.6536V13.6538V13.6539V13.6541V13.6542V13.6544V13.6545V13.6547V13.6548V13.655V13.6551V13.6553V13.6554V13.6556V13.6557V13.6559V13.656V13.6562V13.6563V13.6565V13.6566V13.6568V13.6569V13.6571V13.6573V13.6574V13.6576V13.6577V13.6579V13.658V13.6582V13.6583V13.6585V13.6586V13.6588V13.6589V13.6591V13.6592V13.6594V13.6595V13.6597V13.6598V13.66V13.6601V13.6603V13.6604V13.6606V13.6607V13.6609V13.661V13.6612V13.6613V13.6615V13.6616V13.6618V13.6619V13.6621V13.6622V13.6624V13.6626V13.6627V13.6629V13.663V13.6632V13.6633V13.6635V13.6636V13.6638V13.6639V13.6641V13.6642V13.6644V13.6645V13.6647V13.6648V13.665V13.6651V13.6653V13.6654V13.6656V13.6657V13.6659V13.666V13.6662V13.6663V13.6665V13.6666V13.6668V13.6669V13.6671V13.6673V13.6674V13.6676V13.6677V13.6679V13.668V13.6682V13.6683V13.6685V13.6686V13.6688V13.6689V13.6691V13.6692V13.6694V13.6695V13.6697V13.6698V13.67V13.6701V13.6703V13.6704V13.6706V13.6707V13.6709V13.6711V13.6712V13.6714V13.6715V13.6717V13.6718V13.672V13.6721V13.6723V13.6724V13.6726V13.6727V13.6729V13.673V13.6732V13.6733V13.6735V13.6736V13.6738V13.674V13.6741V13.6743V13.6744V13.6746V13.6747V13.6749V13.675V13.6752V13.6753V13.6755V13.6756V13.6758V13.6759V13.6761V13.6763V13.6764V13.6766V13.6767V13.6769V13.677V13.6772V13.6773V13.6775V13.6776V13.6778V13.6779V13.6781V13.6783V13.6784V13.6786V13.6787V13.6789V13.679V13.6792V13.6793V13.6795V13.6796V13.6798V13.68V13.6801V13.6803V13.6804V13.6806V13.6807V13.6809V13.681V13.6812V13.6813V13.6815V13.6817V13.6818V13.682V13.6821V13.6823V13.6824V13.6826V13.6827V13.6829V13.6831V13.6832V13.6834V13.6835V13.6837V13.6838V13.684V13.6841V13.6843V13.6845V13.6846V13.6848V13.6849V13.6851V13.6852V13.6854V13.6856V13.6857V13.6859V13.686V13.6862V13.6863V13.6865V13.6867V13.6868V13.687V13.6871V13.6873V13.6874V13.6876V13.6878V13.6879V13.6881V13.6882V13.6884V13.6885V13.6887V13.6889V13.689V13.6892V13.6893V13.6895V13.6897V13.6898V13.69V13.6901V13.6903V13.6905V13.6906V13.6908V13.6909V13.6911V13.6912V13.6914V13.6916V13.6917V13.6919V13.692V13.6922V13.6924V13.6925V13.6927V13.6928V13.693V13.6932V13.6933V13.6935V13.6937V13.6938V13.694V13.6941V13.6943V13.6945V13.6946V13.6948V13.6949V13.6951V13.6953V13.6954V13.6956V13.6957V13.6959V13.6961V13.6962V13.6964V13.6966V13.6967V13.6969V13.697V13.6972V13.6974V13.6975V13.6977V13.6979V13.698V13.6982V13.6984V13.6985V13.6987V13.6988V13.699V13.6992V13.6993V13.6995V13.6997V13.6998V13.7V13.7002V13.7003V13.7005V13.7007V13.7008V13.701C1.51883 15.7258 2.32584 17.5627 3.63576 18.9072L3.31806 18.8467L3.83166 20.4491C4.51498 22.581 6.13352 24.2979 8.2041 25.115C6.57804 25.937 4.74116 26.3997 2.7914 26.3997C2.31193 26.3997 1.83694 26.3695 1.36043 26.3165L0.710082 28.1521C3.72227 30.0843 7.30629 31.2146 11.1563 31.2146C23.7082 31.2146 30.5403 20.7994 30.5403 11.8306C30.5403 11.7146 30.5396 11.5982 30.5377 11.4814C31.6345 10.624 32.6005 9.60496 33.3988 8.46432Z" fill="white" stroke="#6CC7FF" stroke-width="2"/>
</svg>
