<svg width="64" height="56" viewBox="0 0 64 56" fill="none" xmlns="http://www.w3.org/2000/svg">
<mask id="path-1-outside-1_1_2372" maskUnits="userSpaceOnUse" x="1.6958" y="1.62598" width="61" height="50" fill="black">
<rect fill="white" x="1.6958" y="1.62598" width="61" height="50"/>
<path fill-rule="evenodd" clip-rule="evenodd" d="M48.6392 17.8493L47.2761 19.0761V15.6683C45.913 15.6683 44.0047 15.1231 42.0963 14.4415L44.141 12.6695C45.3678 11.579 46.8672 10.7611 48.3666 10.2159L55.4548 7.62598L51.7744 14.1689C50.9565 15.532 49.866 16.7588 48.6392 17.8493ZM17.2877 19.0761L15.9245 17.8493C14.6977 16.8951 13.7436 15.532 12.9257 14.1689L9.10897 7.62598L16.1972 10.2159C17.6966 10.7611 19.196 11.579 20.4228 12.6695L22.6038 14.4415C20.6954 15.1231 18.7871 15.6683 17.2877 15.8047V19.0761ZM53.2738 41.5675L55.1822 40.8859C56.1363 40.8859 56.1364 41.9764 55.7274 42.9306L51.9107 47.4289C51.0928 48.383 50.1387 48.383 50.0023 47.5652L50.275 45.5205L46.7309 42.5217L44.9588 44.5663V46.3384C44.9588 46.7473 44.5499 46.8836 44.2773 46.611L40.1879 43.2032C39.779 42.9306 39.9153 42.5217 40.3243 42.5217L42.0963 42.249L43.1868 40.8859L39.7701 37.9949C35.9202 41.1337 32.2818 43.0666 32.2818 43.0666C32.2818 43.0666 28.7512 41.0165 24.8131 37.9575L21.5133 40.7496L22.6038 42.1127L24.3758 42.3853C24.7848 42.3853 24.7848 42.7943 24.5121 43.0669L20.4228 46.4747C20.1502 46.7473 19.6049 46.611 19.7413 46.2021V44.43L18.2418 42.3853L14.6977 45.3842L14.9704 47.4289C14.834 48.2467 13.8799 48.2467 13.062 47.2925L9.24529 42.7943C8.42742 41.8401 8.56373 40.8859 9.3816 40.8859L11.29 41.5675L14.834 38.5686L13.062 36.524L11.29 36.2513C11.0173 36.2513 10.881 35.8424 11.1536 35.5698L15.243 32.162C15.5156 31.8894 15.9245 32.0257 16.0608 32.4346V34.2067L17.1513 35.5698L20.1502 32.9799C20.8317 34.343 21.6496 35.4335 22.7401 36.2513C22.852 36.3409 22.9676 36.4304 23.0862 36.5193C19.2935 32.7177 18.9233 24.8192 18.9233 17.1674C22.4674 16.8948 28.8741 14.0323 32.2818 10.2156C35.8259 14.0323 42.0962 16.8948 45.6403 17.1674C45.6403 24.9883 45.2536 33.067 41.2209 36.7653C41.4594 36.594 41.703 36.4227 41.96 36.2513C43.0505 35.2972 43.8683 34.2067 44.5499 32.9799L47.5487 35.5698L48.6392 34.2067V32.4346C48.6392 32.0257 49.0482 31.8894 49.3208 32.162L53.4101 35.5698C53.8191 35.8424 53.6828 36.2513 53.2738 36.2513L51.5018 36.524L49.7297 38.5686L53.2738 41.5675Z"/>
</mask>
<path fill-rule="evenodd" clip-rule="evenodd" d="M48.6392 17.8493L47.2761 19.0761V15.6683C45.913 15.6683 44.0047 15.1231 42.0963 14.4415L44.141 12.6695C45.3678 11.579 46.8672 10.7611 48.3666 10.2159L55.4548 7.62598L51.7744 14.1689C50.9565 15.532 49.866 16.7588 48.6392 17.8493ZM17.2877 19.0761L15.9245 17.8493C14.6977 16.8951 13.7436 15.532 12.9257 14.1689L9.10897 7.62598L16.1972 10.2159C17.6966 10.7611 19.196 11.579 20.4228 12.6695L22.6038 14.4415C20.6954 15.1231 18.7871 15.6683 17.2877 15.8047V19.0761ZM53.2738 41.5675L55.1822 40.8859C56.1363 40.8859 56.1364 41.9764 55.7274 42.9306L51.9107 47.4289C51.0928 48.383 50.1387 48.383 50.0023 47.5652L50.275 45.5205L46.7309 42.5217L44.9588 44.5663V46.3384C44.9588 46.7473 44.5499 46.8836 44.2773 46.611L40.1879 43.2032C39.779 42.9306 39.9153 42.5217 40.3243 42.5217L42.0963 42.249L43.1868 40.8859L39.7701 37.9949C35.9202 41.1337 32.2818 43.0666 32.2818 43.0666C32.2818 43.0666 28.7512 41.0165 24.8131 37.9575L21.5133 40.7496L22.6038 42.1127L24.3758 42.3853C24.7848 42.3853 24.7848 42.7943 24.5121 43.0669L20.4228 46.4747C20.1502 46.7473 19.6049 46.611 19.7413 46.2021V44.43L18.2418 42.3853L14.6977 45.3842L14.9704 47.4289C14.834 48.2467 13.8799 48.2467 13.062 47.2925L9.24529 42.7943C8.42742 41.8401 8.56373 40.8859 9.3816 40.8859L11.29 41.5675L14.834 38.5686L13.062 36.524L11.29 36.2513C11.0173 36.2513 10.881 35.8424 11.1536 35.5698L15.243 32.162C15.5156 31.8894 15.9245 32.0257 16.0608 32.4346V34.2067L17.1513 35.5698L20.1502 32.9799C20.8317 34.343 21.6496 35.4335 22.7401 36.2513C22.852 36.3409 22.9676 36.4304 23.0862 36.5193C19.2935 32.7177 18.9233 24.8192 18.9233 17.1674C22.4674 16.8948 28.8741 14.0323 32.2818 10.2156C35.8259 14.0323 42.0962 16.8948 45.6403 17.1674C45.6403 24.9883 45.2536 33.067 41.2209 36.7653C41.4594 36.594 41.703 36.4227 41.96 36.2513C43.0505 35.2972 43.8683 34.2067 44.5499 32.9799L47.5487 35.5698L48.6392 34.2067V32.4346C48.6392 32.0257 49.0482 31.8894 49.3208 32.162L53.4101 35.5698C53.8191 35.8424 53.6828 36.2513 53.2738 36.2513L51.5018 36.524L49.7297 38.5686L53.2738 41.5675Z" fill="#753901"/>
<path d="M47.2761 19.0761H44.2761V25.8122L49.283 21.306L47.2761 19.0761ZM48.6392 17.8493L46.6461 15.6071L46.6392 15.6132L46.6323 15.6194L48.6392 17.8493ZM47.2761 15.6683H50.2761V12.6683H47.2761V15.6683ZM42.0963 14.4415L40.1315 12.1745L36.2494 15.539L41.0873 17.2668L42.0963 14.4415ZM44.141 12.6695L46.1058 14.9366L46.12 14.9242L46.1341 14.9117L44.141 12.6695ZM48.3666 10.2159L49.3918 13.0353L49.3962 13.0337L48.3666 10.2159ZM55.4548 7.62598L58.0695 9.09676L62.0487 2.02268L54.4252 4.80818L55.4548 7.62598ZM51.7744 14.1689L54.3469 15.7124L54.3685 15.6763L54.3891 15.6397L51.7744 14.1689ZM15.9245 17.8493L17.9314 15.6194L17.8514 15.5474L17.7664 15.4813L15.9245 17.8493ZM17.2877 19.0761L15.2808 21.306L20.2877 25.8122V19.0761H17.2877ZM12.9257 14.1689L10.3344 15.6805L10.3437 15.6965L10.3532 15.7124L12.9257 14.1689ZM9.10897 7.62598L10.1386 4.80818L2.32724 1.95405L6.51764 9.13759L9.10897 7.62598ZM16.1972 10.2159L15.1676 13.0337L15.1719 13.0353L16.1972 10.2159ZM20.4228 12.6695L18.4297 14.9117L18.4794 14.9559L18.531 14.9978L20.4228 12.6695ZM22.6038 14.4415L23.6128 17.2668L28.6321 15.4741L24.4956 12.1132L22.6038 14.4415ZM17.2877 15.8047L17.016 12.817L14.2877 13.065V15.8047H17.2877ZM55.1822 40.8859V37.8859H54.6625L54.1732 38.0607L55.1822 40.8859ZM53.2738 41.5675L51.336 43.8576L52.6553 44.974L54.2828 44.3927L53.2738 41.5675ZM55.7274 42.9306L58.0149 44.8715L58.307 44.5273L58.4848 44.1123L55.7274 42.9306ZM51.9107 47.4289L54.1885 49.3812L54.1934 49.3755L54.1982 49.3698L51.9107 47.4289ZM50.0023 47.5652L47.0287 47.1687L46.9692 47.6146L47.0432 48.0584L50.0023 47.5652ZM50.275 45.5205L53.2487 45.917L53.4655 44.2904L52.2128 43.2303L50.275 45.5205ZM46.7309 42.5217L48.6687 40.2315L46.4055 38.3165L44.4638 40.5569L46.7309 42.5217ZM44.9588 44.5663L42.6918 42.6015L41.9588 43.4472V44.5663H44.9588ZM44.2773 46.611L46.3986 44.4897L46.3024 44.3934L46.1978 44.3063L44.2773 46.611ZM40.1879 43.2032L42.1085 40.8985L41.9854 40.7959L41.852 40.7071L40.1879 43.2032ZM40.3243 42.5217V45.5217H40.5537L40.7804 45.4868L40.3243 42.5217ZM42.0963 42.249L42.5525 45.2141L43.7083 45.0363L44.4389 44.1231L42.0963 42.249ZM43.1868 40.8859L45.5294 42.76L47.3526 40.481L45.1246 38.5958L43.1868 40.8859ZM39.7701 37.9949L41.7079 35.7047L39.8057 34.0952L37.8744 35.6697L39.7701 37.9949ZM32.2818 43.0666L30.7754 45.661L32.2171 46.498L33.6893 45.7159L32.2818 43.0666ZM24.8131 37.9575L26.6534 35.5883L24.7323 34.096L22.8752 35.6673L24.8131 37.9575ZM21.5133 40.7496L19.5755 38.4594L17.3475 40.3447L19.1707 42.6237L21.5133 40.7496ZM22.6038 42.1127L20.2612 43.9868L20.9917 44.9L22.1476 45.0778L22.6038 42.1127ZM24.3758 42.3853L23.9197 45.3505L24.1464 45.3853H24.3758V42.3853ZM24.5121 43.0669L26.4327 45.3716L26.5372 45.2844L26.6335 45.1882L24.5121 43.0669ZM20.4228 46.4747L18.5023 44.17L18.3977 44.2571L18.3015 44.3534L20.4228 46.4747ZM19.7413 46.2021L22.5873 47.1507L22.7413 46.6889V46.2021H19.7413ZM19.7413 44.43H22.7413V43.4479L22.1605 42.6559L19.7413 44.43ZM18.2418 42.3853L20.661 40.6112L18.7591 38.0178L16.304 40.0952L18.2418 42.3853ZM14.6977 45.3842L12.7599 43.094L11.5072 44.154L11.7241 45.7807L14.6977 45.3842ZM14.9704 47.4289L17.9295 47.9221L18.0035 47.4783L17.944 47.0324L14.9704 47.4289ZM13.062 47.2925L10.7745 49.2335L10.7793 49.2392L10.7842 49.2449L13.062 47.2925ZM9.24529 42.7943L11.5328 40.8533L11.5279 40.8476L11.5231 40.8419L9.24529 42.7943ZM9.3816 40.8859L10.3906 38.0607L9.90124 37.8859H9.3816V40.8859ZM11.29 41.5675L10.2809 44.3927L11.9085 44.974L13.2278 43.8576L11.29 41.5675ZM14.834 38.5686L16.7719 40.8588L19.0893 38.8979L17.1011 36.6038L14.834 38.5686ZM13.062 36.524L15.3291 34.5592L14.6073 33.7264L13.5182 33.5588L13.062 36.524ZM11.29 36.2513L11.7461 33.2862L11.5194 33.2513H11.29V36.2513ZM11.1536 35.5698L9.23309 33.2651L9.12855 33.3522L9.03232 33.4485L11.1536 35.5698ZM15.243 32.162L17.1635 34.4667L17.2681 34.3795L17.3643 34.2833L15.243 32.162ZM16.0608 32.4346H19.0608V31.9478L18.9069 31.4859L16.0608 32.4346ZM16.0608 34.2067H13.0608V35.259L13.7182 36.0808L16.0608 34.2067ZM17.1513 35.5698L14.8087 37.4439L16.7547 39.8763L19.1122 37.8402L17.1513 35.5698ZM20.1502 32.9799L22.8335 31.6382L21.1085 28.1883L18.1893 30.7094L20.1502 32.9799ZM22.7401 36.2513L24.6142 33.9087L24.5776 33.8795L24.5401 33.8513L22.7401 36.2513ZM23.0862 36.5193L21.2871 38.9199L25.21 34.4004L23.0862 36.5193ZM18.9233 17.1674L18.6932 14.1763L15.9233 14.3894V17.1674H18.9233ZM32.2818 10.2156L34.4802 8.17422L32.2383 5.75989L30.044 8.21753L32.2818 10.2156ZM45.6403 17.1674H48.6403V14.3894L45.8704 14.1763L45.6403 17.1674ZM41.2209 36.7653L39.1932 34.5543L42.971 39.202L41.2209 36.7653ZM41.96 36.2513L43.6241 38.7475L43.7876 38.6385L43.9355 38.5091L41.96 36.2513ZM44.5499 32.9799L46.5108 30.7094L43.7189 28.2983L41.9274 31.5229L44.5499 32.9799ZM47.5487 35.5698L45.5879 37.8402L47.9454 39.8763L49.8913 37.4439L47.5487 35.5698ZM48.6392 34.2067L50.9818 36.0808L51.6392 35.259V34.2067H48.6392ZM49.3208 32.162L47.1995 34.2833L47.2957 34.3795L47.4002 34.4667L49.3208 32.162ZM53.4101 35.5698L51.4896 37.8744L51.6127 37.977L51.746 38.0659L53.4101 35.5698ZM53.2738 36.2513V33.2513H53.0444L52.8176 33.2862L53.2738 36.2513ZM51.5018 36.524L51.0456 33.5588L49.9564 33.7264L49.2347 34.5592L51.5018 36.524ZM49.7297 38.5686L47.4627 36.6038L45.4745 38.8979L47.7919 40.8588L49.7297 38.5686ZM49.283 21.306L50.6461 20.0792L46.6323 15.6194L45.2692 16.8462L49.283 21.306ZM44.2761 15.6683V19.0761H50.2761V15.6683H44.2761ZM41.0873 17.2668C42.9793 17.9425 45.3344 18.6683 47.2761 18.6683V12.6683C46.4916 12.6683 45.03 12.3037 43.1053 11.6163L41.0873 17.2668ZM42.1762 10.4024L40.1315 12.1745L44.0611 16.7086L46.1058 14.9366L42.1762 10.4024ZM47.3414 7.39651C45.5603 8.04419 43.7117 9.0372 42.1479 10.4273L46.1341 14.9117C47.0238 14.1208 48.1741 13.4781 49.3918 13.0353L47.3414 7.39651ZM54.4252 4.80818L47.337 7.3981L49.3962 13.0337L56.4844 10.4438L54.4252 4.80818ZM54.3891 15.6397L58.0695 9.09676L52.8401 6.15519L49.1597 12.6981L54.3891 15.6397ZM50.6323 20.0915C52.0268 18.852 53.336 17.3972 54.3469 15.7124L49.2019 12.6254C48.577 13.6669 47.7052 14.6657 46.6461 15.6071L50.6323 20.0915ZM13.9176 20.0792L15.2808 21.306L19.2945 16.8462L17.9314 15.6194L13.9176 20.0792ZM10.3532 15.7124C11.2151 17.1488 12.4012 18.9095 14.0827 20.2174L17.7664 15.4813C16.9943 14.8807 16.272 13.9152 15.4982 12.6254L10.3532 15.7124ZM6.51764 9.13759L10.3344 15.6805L15.517 12.6573L11.7003 6.11436L6.51764 9.13759ZM17.2267 7.3981L10.1386 4.80818L8.0794 10.4438L15.1676 13.0337L17.2267 7.3981ZM22.4159 10.4273C20.8521 9.0372 19.0035 8.04419 17.2224 7.39651L15.1719 13.0353C16.3897 13.4781 17.5399 14.1208 18.4297 14.9117L22.4159 10.4273ZM24.4956 12.1132L22.3146 10.3412L18.531 14.9978L20.712 16.7699L24.4956 12.1132ZM17.5593 18.7923C19.4494 18.6205 21.6493 17.968 23.6128 17.2668L21.5948 11.6163C19.7415 12.2782 18.1247 12.7162 17.016 12.817L17.5593 18.7923ZM20.2877 19.0761V15.8047H14.2877V19.0761H20.2877ZM54.1732 38.0607L52.2648 38.7422L54.2828 44.3927L56.1912 43.7111L54.1732 38.0607ZM58.4848 44.1123C58.8059 43.3632 59.1289 42.2287 58.9216 41.0364C58.8097 40.3927 58.5048 39.5475 57.7546 38.8598C56.9698 38.1404 56.0176 37.8859 55.1822 37.8859V43.8859C54.8238 43.8859 54.2295 43.7678 53.7002 43.2827C53.2056 42.8293 53.0541 42.3162 53.0103 42.0645C52.9874 41.9329 52.9858 41.8339 52.9874 41.7776C52.9891 41.7199 52.9948 41.6857 52.9965 41.6766C52.9989 41.6631 52.9942 41.6924 52.97 41.7488L58.4848 44.1123ZM54.1982 49.3698L58.0149 44.8715L53.4399 40.9897L49.6232 45.4879L54.1982 49.3698ZM47.0432 48.0584C47.1717 48.8298 47.5494 49.6904 48.3345 50.3377C49.1221 50.9872 50.0469 51.1961 50.8436 51.1581C52.3293 51.0874 53.4775 50.2107 54.1885 49.3812L49.6329 45.4765C49.526 45.6012 49.7883 45.2016 50.5583 45.1649C50.9972 45.144 51.6067 45.2592 52.1516 45.7085C52.6939 46.1556 52.9011 46.7095 52.9615 47.072L47.0432 48.0584ZM47.3013 45.124L47.0287 47.1687L52.976 47.9617L53.2487 45.917L47.3013 45.124ZM44.7931 44.8118L48.3371 47.8107L52.2128 43.2303L48.6687 40.2315L44.7931 44.8118ZM47.2259 46.5311L48.9979 44.4864L44.4638 40.5569L42.6918 42.6015L47.2259 46.5311ZM47.9588 46.3384V44.5663H41.9588V46.3384H47.9588ZM42.156 48.7323C43.015 49.5914 44.3983 50.055 45.7737 49.5392C47.2279 48.9939 47.9588 47.6287 47.9588 46.3384H41.9588C41.9588 45.4569 42.4853 44.3644 43.6669 43.9213C44.7697 43.5077 45.8122 43.9032 46.3986 44.4897L42.156 48.7323ZM38.2674 45.5079L42.3567 48.9157L46.1978 44.3063L42.1085 40.8985L38.2674 45.5079ZM40.3243 39.5217C39.1412 39.5217 37.4946 40.21 37.039 42.0326C36.5927 43.8178 37.6755 45.1338 38.5238 45.6994L41.852 40.7071C42.2914 41 43.238 41.9753 42.8598 43.4878C42.4723 45.0377 41.0984 45.5217 40.3243 45.5217V39.5217ZM41.6401 39.2839L39.8681 39.5565L40.7804 45.4868L42.5525 45.2141L41.6401 39.2839ZM40.8442 39.0118L39.7537 40.3749L44.4389 44.1231L45.5294 42.76L40.8442 39.0118ZM37.8323 40.285L41.249 43.1761L45.1246 38.5958L41.7079 35.7047L37.8323 40.285ZM32.2818 43.0666C33.6893 45.7159 33.6896 45.7158 33.69 45.7156C33.6901 45.7155 33.6904 45.7153 33.6907 45.7152C33.6912 45.7149 33.6918 45.7146 33.6924 45.7143C33.6937 45.7136 33.6951 45.7128 33.6968 45.7119C33.7002 45.7101 33.7045 45.7078 33.7097 45.7051C33.72 45.6995 33.7338 45.6921 33.751 45.6828C33.7853 45.6642 33.8333 45.6381 33.8939 45.6047C34.0151 45.5379 34.1873 45.4417 34.4036 45.3176C34.836 45.0694 35.4465 44.7087 36.1805 44.2466C37.6439 43.3254 39.6215 41.9867 41.6658 40.32L37.8744 35.6697C36.0687 37.1419 34.3023 38.3391 32.984 39.169C32.3272 39.5825 31.7875 39.9011 31.4173 40.1135C31.2324 40.2196 31.0903 40.299 30.9975 40.3501C30.9511 40.3757 30.9171 40.3942 30.8963 40.4054C30.8859 40.411 30.8788 40.4149 30.8751 40.4168C30.8733 40.4178 30.8723 40.4184 30.8721 40.4184C30.8721 40.4185 30.8722 40.4184 30.8726 40.4182C30.8728 40.4181 30.873 40.418 30.8733 40.4178C30.8735 40.4177 30.8737 40.4176 30.8738 40.4175C30.8741 40.4174 30.8744 40.4172 32.2818 43.0666ZM22.9727 40.3267C25.0245 41.9204 26.9633 43.2464 28.3878 44.1735C29.1015 44.6381 29.69 45.005 30.1038 45.258C30.3108 45.3845 30.4743 45.4827 30.5882 45.5505C30.6452 45.5844 30.6898 45.6108 30.7212 45.6293C30.737 45.6385 30.7494 45.6458 30.7585 45.6511C30.763 45.6537 30.7667 45.6559 30.7695 45.6575C30.7709 45.6583 30.7721 45.659 30.7731 45.6596C30.7736 45.6599 30.7741 45.6602 30.7744 45.6604C30.7746 45.6605 30.7749 45.6606 30.775 45.6607C30.7752 45.6608 30.7754 45.661 32.2818 43.0666C33.7882 40.4722 33.7884 40.4723 33.7886 40.4724C33.7887 40.4725 33.7888 40.4726 33.7889 40.4726C33.7891 40.4727 33.7892 40.4728 33.7893 40.4728C33.7894 40.4729 33.7893 40.4728 33.789 40.4727C33.7884 40.4723 33.787 40.4715 33.7847 40.4702C33.7802 40.4675 33.7723 40.4629 33.7612 40.4564C33.739 40.4433 33.7039 40.4226 33.6567 40.3945C33.5621 40.3383 33.4191 40.2524 33.2335 40.1389C32.8622 39.9119 32.3219 39.5752 31.6607 39.1448C30.3354 38.2822 28.5398 37.0536 26.6534 35.5883L22.9727 40.3267ZM23.4511 43.0398L26.7509 40.2476L22.8752 35.6673L19.5755 38.4594L23.4511 43.0398ZM24.9464 40.2386L23.8559 38.8755L19.1707 42.6237L20.2612 43.9868L24.9464 40.2386ZM24.832 39.4202L23.06 39.1476L22.1476 45.0778L23.9197 45.3505L24.832 39.4202ZM26.6335 45.1882C27.2089 44.6128 27.8414 43.5718 27.6764 42.2518C27.5845 41.5167 27.2259 40.7059 26.4821 40.1109C25.764 39.5365 24.9671 39.3853 24.3758 39.3853V45.3853C23.9891 45.3853 23.3455 45.2853 22.7339 44.7961C22.0966 44.2863 21.7976 43.5947 21.7227 42.996C21.5918 41.9486 22.088 41.2484 22.3908 40.9456L26.6335 45.1882ZM22.3434 48.7793L26.4327 45.3716L22.5916 40.7622L18.5023 44.17L22.3434 48.7793ZM16.8952 45.2534C16.6448 46.0044 16.6163 46.9768 17.1215 47.898C17.5985 48.7679 18.3543 49.2314 18.98 49.44C20.1402 49.8268 21.5527 49.5875 22.5441 48.596L18.3015 44.3534C19.0203 43.6345 20.0238 43.4634 20.8774 43.7479C21.3498 43.9054 21.9777 44.2752 22.3823 45.013C22.8151 45.8021 22.7695 46.6041 22.5873 47.1507L16.8952 45.2534ZM16.7413 44.43V46.2021H22.7413V44.43H16.7413ZM15.8226 44.1594L17.322 46.2041L22.1605 42.6559L20.661 40.6112L15.8226 44.1594ZM16.6356 47.6743L20.1797 44.6755L16.304 40.0952L12.7599 43.094L16.6356 47.6743ZM17.944 47.0324L17.6714 44.9877L11.7241 45.7807L11.9967 47.8253L17.944 47.0324ZM10.7842 49.2449C11.4952 50.0744 12.6435 50.9511 14.1291 51.0218C14.9258 51.0598 15.8506 50.8509 16.6382 50.2014C17.4233 49.554 17.801 48.6934 17.9295 47.9221L12.0112 46.9357C12.0716 46.5732 12.2789 46.0193 12.8211 45.5722C13.366 45.1229 13.9755 45.0077 14.4145 45.0286C15.1844 45.0653 15.4467 45.4649 15.3398 45.3402L10.7842 49.2449ZM6.95776 44.7352L10.7745 49.2335L15.3495 45.3516L11.5328 40.8533L6.95776 44.7352ZM9.3816 37.8859C8.58321 37.8859 7.65398 38.1298 6.88428 38.8282C6.11822 39.5234 5.7879 40.4172 5.71355 41.1979C5.57455 42.6574 6.2547 43.915 6.96752 44.7466L11.5231 40.8419C11.418 40.7193 11.7574 41.0228 11.6865 41.7667C11.6463 42.1895 11.4522 42.7852 10.9162 43.2716C10.3765 43.7613 9.77105 43.8859 9.3816 43.8859V37.8859ZM12.299 38.7422L10.3906 38.0607L8.37259 43.7111L10.2809 44.3927L12.299 38.7422ZM12.8962 36.2785L9.35213 39.2773L13.2278 43.8576L16.7719 40.8588L12.8962 36.2785ZM10.7949 38.4887L12.567 40.5334L17.1011 36.6038L15.3291 34.5592L10.7949 38.4887ZM10.8338 39.2165L12.6058 39.4891L13.5182 33.5588L11.7461 33.2862L10.8338 39.2165ZM9.03232 33.4485C8.15327 34.3275 7.81642 35.5785 8.1069 36.7404C8.37833 37.8261 9.41549 39.2513 11.29 39.2513V33.2513C12.8918 33.2513 13.7245 34.4721 13.9278 35.2852C14.1501 36.1745 13.8814 37.0847 13.275 37.6911L9.03232 33.4485ZM13.3224 29.8573L9.23309 33.2651L13.0742 37.8744L17.1635 34.4667L13.3224 29.8573ZM18.9069 31.4859C18.5888 30.5317 17.8375 29.5919 16.6517 29.1967C15.3903 28.7762 14.0388 29.1236 13.1217 30.0407L17.3643 34.2833C16.7198 34.9278 15.7091 35.207 14.7543 34.8888C13.8752 34.5957 13.3966 33.9286 13.2148 33.3833L18.9069 31.4859ZM19.0608 34.2067V32.4346H13.0608V34.2067H19.0608ZM19.4939 33.6957L18.4035 32.3326L13.7182 36.0808L14.8087 37.4439L19.4939 33.6957ZM18.1893 30.7094L15.1905 33.2993L19.1122 37.8402L22.111 35.2503L18.1893 30.7094ZM24.5401 33.8513C23.921 33.387 23.3701 32.7115 22.8335 31.6382L17.4669 34.3215C18.2934 35.9745 19.3782 37.4799 20.9401 38.6513L24.5401 33.8513ZM24.8854 34.1186C24.7917 34.0485 24.7011 33.9783 24.6142 33.9087L20.866 38.5939C21.0029 38.7034 21.1434 38.8123 21.2871 38.9199L24.8854 34.1186ZM15.9233 17.1674C15.9233 21.0029 16.0123 25.1074 16.6232 28.7795C17.2236 32.3888 18.4008 36.0705 20.9624 38.6381L25.21 34.4004C23.9789 33.1665 23.0747 30.9981 22.5418 27.7949C22.0194 24.6543 21.9233 20.9837 21.9233 17.1674H15.9233ZM30.044 8.21753C28.6744 9.75149 26.5744 11.2139 24.3195 12.3336C22.0374 13.4668 19.9386 14.0805 18.6932 14.1763L19.1534 20.1586C21.4521 19.9818 24.3287 19.0279 26.9879 17.7075C29.6743 16.3736 32.4815 14.4964 34.5197 12.2136L30.044 8.21753ZM45.8704 14.1763C44.6322 14.081 42.5712 13.4715 40.3027 12.3373C38.0682 11.22 35.94 9.74626 34.4802 8.17422L30.0835 12.2569C32.1678 14.5016 34.9467 16.3675 37.6194 17.7038C40.2582 19.0232 43.1044 19.9812 45.4103 20.1586L45.8704 14.1763ZM43.2486 38.9763C46.0036 36.4497 47.2611 32.6972 47.8986 29.0256C48.5477 25.2882 48.6403 21.0855 48.6403 17.1674H42.6403C42.6403 21.0702 42.5396 24.8174 41.9871 27.9991C41.4232 31.2467 40.4709 33.3826 39.1932 34.5543L43.2486 38.9763ZM40.2959 33.7552C39.9992 33.953 39.7248 34.1463 39.4708 34.3287L42.971 39.202C43.1941 39.0418 43.4068 38.8924 43.6241 38.7475L40.2959 33.7552ZM41.9274 31.5229C41.3801 32.5082 40.7672 33.3087 39.9845 33.9936L43.9355 38.5091C45.3337 37.2856 46.3566 35.9051 47.1724 34.4368L41.9274 31.5229ZM49.5096 33.2993L46.5108 30.7094L42.589 35.2503L45.5879 37.8402L49.5096 33.2993ZM46.2966 32.3326L45.2061 33.6957L49.8913 37.4439L50.9818 36.0808L46.2966 32.3326ZM45.6392 32.4346V34.2067H51.6392V32.4346H45.6392ZM51.4421 30.0407C50.5831 29.1816 49.1998 28.718 47.8244 29.2337C46.3702 29.7791 45.6392 31.1443 45.6392 32.4346H51.6392C51.6392 33.316 51.1127 34.4086 49.9312 34.8517C48.8284 35.2653 47.7859 34.8697 47.1995 34.2833L51.4421 30.0407ZM55.3307 33.2651L51.2413 29.8573L47.4002 34.4667L51.4896 37.8744L55.3307 33.2651ZM53.2738 39.2513C54.4569 39.2513 56.1035 38.563 56.5591 36.7404C57.0054 34.9552 55.9225 33.6392 55.0742 33.0736L51.746 38.0659C51.3067 37.773 50.3601 36.7978 50.7382 35.2852C51.1257 33.7352 52.4997 33.2513 53.2738 33.2513V39.2513ZM51.9579 39.4891L53.73 39.2165L52.8176 33.2862L51.0456 33.5588L51.9579 39.4891ZM51.9968 40.5334L53.7688 38.4887L49.2347 34.5592L47.4627 36.6038L51.9968 40.5334ZM55.2116 39.2773L51.6676 36.2785L47.7919 40.8588L51.336 43.8576L55.2116 39.2773Z" fill="#FEC12B" mask="url(#path-1-outside-1_1_2372)"/>
</svg>
