<svg width="37" height="28" viewBox="0 0 37 28" fill="none" xmlns="http://www.w3.org/2000/svg">
<mask id="path-1-outside-1_1_1163" maskUnits="userSpaceOnUse" x="0.699707" y="0.101562" width="37" height="27" fill="black">
<rect fill="white" x="0.699707" y="0.101562" width="37" height="27"/>
<path fill-rule="evenodd" clip-rule="evenodd" d="M33.0294 3.82154C33.5275 4.31967 33.8865 4.93959 34.0705 5.61959C35.13 9.88442 34.8852 16.6201 34.091 21.0495C33.907 21.7295 33.5481 22.3494 33.05 22.8476C32.5519 23.3457 31.9319 23.7046 31.2519 23.8886C28.7626 24.5675 18.7434 24.5675 18.7434 24.5675C18.7434 24.5675 8.72422 24.5675 6.23486 23.8886C5.55487 23.7046 4.93494 23.3457 4.43682 22.8476C3.93869 22.3494 3.57976 21.7295 3.39575 21.0495C2.33006 16.8032 2.6222 10.0634 3.37518 5.64016C3.55918 4.96017 3.91812 4.34024 4.41624 3.84212C4.91437 3.34399 5.53429 2.98506 6.21429 2.80105C8.70365 2.12214 18.7228 2.10156 18.7228 2.10156C18.7228 2.10156 28.742 2.10156 31.2314 2.78048C31.9114 2.96448 32.5313 3.32342 33.0294 3.82154ZM23.8458 13.3346L15.5342 18.1488V8.52051L23.8458 13.3346Z"/>
</mask>
<path fill-rule="evenodd" clip-rule="evenodd" d="M33.0294 3.82154C33.5275 4.31967 33.8865 4.93959 34.0705 5.61959C35.13 9.88442 34.8852 16.6201 34.091 21.0495C33.907 21.7295 33.5481 22.3494 33.05 22.8476C32.5519 23.3457 31.9319 23.7046 31.2519 23.8886C28.7626 24.5675 18.7434 24.5675 18.7434 24.5675C18.7434 24.5675 8.72422 24.5675 6.23486 23.8886C5.55487 23.7046 4.93494 23.3457 4.43682 22.8476C3.93869 22.3494 3.57976 21.7295 3.39575 21.0495C2.33006 16.8032 2.6222 10.0634 3.37518 5.64016C3.55918 4.96017 3.91812 4.34024 4.41624 3.84212C4.91437 3.34399 5.53429 2.98506 6.21429 2.80105C8.70365 2.12214 18.7228 2.10156 18.7228 2.10156C18.7228 2.10156 28.742 2.10156 31.2314 2.78048C31.9114 2.96448 32.5313 3.32342 33.0294 3.82154ZM23.8458 13.3346L15.5342 18.1488V8.52051L23.8458 13.3346Z" fill="white"/>
<path d="M34.0705 5.61959L36.0115 5.13738L36.0065 5.11723L36.001 5.09718L34.0705 5.61959ZM33.0294 3.82154L31.6152 5.23575L31.6152 5.23576L33.0294 3.82154ZM34.091 21.0495L36.0216 21.5719L36.0443 21.488L36.0596 21.4025L34.091 21.0495ZM33.05 22.8476L34.4642 24.2618L34.4642 24.2618L33.05 22.8476ZM31.2519 23.8886L30.7295 21.9581L30.7257 21.9591L31.2519 23.8886ZM6.23486 23.8886L6.7611 21.9591L6.75726 21.9581L6.23486 23.8886ZM3.39575 21.0495L1.45591 21.5364L1.46038 21.5542L1.46519 21.5719L3.39575 21.0495ZM3.37518 5.64016L1.44461 5.11776L1.41961 5.21016L1.40354 5.30452L3.37518 5.64016ZM4.41624 3.84212L5.83046 5.25633L5.83046 5.25633L4.41624 3.84212ZM6.21429 2.80105L6.73669 4.73162L6.74052 4.73058L6.21429 2.80105ZM18.7228 2.10156L18.7228 0.101558L18.7187 0.101567L18.7228 2.10156ZM31.2314 2.78048L30.7051 4.71001L30.709 4.71105L31.2314 2.78048ZM15.5342 18.1488H13.5342V21.6185L16.5366 19.8794L15.5342 18.1488ZM23.8458 13.3346L24.8482 15.0653L27.8362 13.3346L24.8482 11.604L23.8458 13.3346ZM15.5342 8.52051L16.5366 6.78985L13.5342 5.05083V8.52051H15.5342ZM36.001 5.09718C35.7258 4.07992 35.1888 3.15252 34.4436 2.40733L31.6152 5.23576C31.8662 5.48681 32.0472 5.79927 32.1399 6.142L36.001 5.09718ZM36.0596 21.4025C36.8806 16.8234 37.1644 9.77821 36.0115 5.13738L32.1295 6.10179C33.0956 9.99063 32.8897 16.4168 32.1224 20.6966L36.0596 21.4025ZM34.4642 24.2618C35.2094 23.5166 35.7463 22.5892 36.0216 21.5719L32.1605 20.5271C32.0677 20.8698 31.8868 21.1823 31.6358 21.4334L34.4642 24.2618ZM31.7743 25.8192C32.7916 25.5439 33.719 25.007 34.4642 24.2618L31.6358 21.4334C31.3847 21.6844 31.0723 21.8653 30.7295 21.9581L31.7743 25.8192ZM18.7434 24.5675C18.7434 26.5675 18.7435 26.5675 18.7436 26.5675C18.7437 26.5675 18.7439 26.5675 18.7441 26.5675C18.7445 26.5675 18.7451 26.5675 18.7458 26.5675C18.7471 26.5675 18.7491 26.5675 18.7517 26.5675C18.7569 26.5675 18.7645 26.5675 18.7744 26.5675C18.7942 26.5675 18.8232 26.5675 18.861 26.5674C18.9366 26.5672 19.0471 26.5669 19.1883 26.5662C19.4706 26.5649 19.8758 26.5622 20.3695 26.5568C21.356 26.5461 22.6997 26.5247 24.1244 26.4818C25.5458 26.4389 27.0642 26.3742 28.395 26.2757C29.6684 26.1814 30.9444 26.0455 31.7782 25.8182L30.7257 21.9591C30.3148 22.0712 29.4049 22.1899 28.0996 22.2866C26.8517 22.379 25.3985 22.4416 24.0039 22.4836C22.6126 22.5255 21.296 22.5465 20.3261 22.5571C19.8416 22.5623 19.4446 22.5649 19.1693 22.5662C19.0316 22.5669 18.9245 22.5672 18.852 22.5674C18.8158 22.5675 18.7883 22.5675 18.77 22.5675C18.7609 22.5675 18.7541 22.5675 18.7496 22.5675C18.7474 22.5675 18.7457 22.5675 18.7447 22.5675C18.7442 22.5675 18.7438 22.5675 18.7436 22.5675C18.7435 22.5675 18.7434 22.5675 18.7434 22.5675C18.7434 22.5675 18.7434 22.5675 18.7434 24.5675ZM5.70863 25.8182C6.54239 26.0455 7.81844 26.1814 9.09183 26.2757C10.4226 26.3742 11.941 26.4389 13.3624 26.4818C14.7871 26.5247 16.1308 26.5461 17.1173 26.5568C17.611 26.5622 18.0162 26.5649 18.2985 26.5662C18.4397 26.5669 18.5502 26.5672 18.6258 26.5674C18.6636 26.5675 18.6926 26.5675 18.7124 26.5675C18.7223 26.5675 18.7299 26.5675 18.7351 26.5675C18.7376 26.5675 18.7396 26.5675 18.741 26.5675C18.7417 26.5675 18.7423 26.5675 18.7427 26.5675C18.7429 26.5675 18.7431 26.5675 18.7431 26.5675C18.7433 26.5675 18.7434 26.5675 18.7434 24.5675C18.7434 22.5675 18.7434 22.5675 18.7434 22.5675C18.7434 22.5675 18.7433 22.5675 18.7432 22.5675C18.743 22.5675 18.7426 22.5675 18.7421 22.5675C18.7411 22.5675 18.7394 22.5675 18.7372 22.5675C18.7327 22.5675 18.7259 22.5675 18.7168 22.5675C18.6985 22.5675 18.671 22.5675 18.6347 22.5674C18.5623 22.5672 18.4552 22.5669 18.3175 22.5662C18.0422 22.5649 17.6452 22.5623 17.1607 22.5571C16.1908 22.5465 14.8742 22.5255 13.4829 22.4836C12.0883 22.4416 10.6351 22.379 9.38721 22.2866C8.08188 22.1899 7.17201 22.0712 6.7611 21.9591L5.70863 25.8182ZM3.0226 24.2618C3.76779 25.007 4.69519 25.5439 5.71246 25.8192L6.75726 21.9581C6.41454 21.8653 6.10209 21.6844 5.85103 21.4334L3.0226 24.2618ZM1.46519 21.5719C1.74045 22.5892 2.27742 23.5166 3.0226 24.2618L5.85103 21.4334C5.59997 21.1823 5.41906 20.8698 5.32632 20.5271L1.46519 21.5719ZM1.40354 5.30452C0.630104 9.84796 0.293048 16.9029 1.45591 21.5364L5.33559 20.5627C4.36707 16.7035 4.61429 10.2789 5.34682 5.9758L1.40354 5.30452ZM3.00203 2.4279C2.25684 3.17309 1.71988 4.10049 1.44461 5.11776L5.30575 6.16257C5.39849 5.81984 5.5794 5.50739 5.83046 5.25633L3.00203 2.4279ZM5.69188 0.870485C4.67462 1.14575 3.74721 1.68272 3.00203 2.4279L5.83046 5.25633C6.08152 5.00527 6.39397 4.82436 6.73669 4.73162L5.69188 0.870485ZM18.7228 2.10156C18.7187 0.101567 18.7186 0.101567 18.7185 0.101567C18.7184 0.101567 18.7182 0.101568 18.718 0.101568C18.7176 0.101569 18.7171 0.10157 18.7164 0.101572C18.715 0.101575 18.713 0.10158 18.7104 0.101587C18.7052 0.1016 18.6976 0.101621 18.6877 0.101652C18.668 0.101714 18.6389 0.101816 18.6011 0.101978C18.5256 0.102301 18.4151 0.102862 18.2739 0.103818C17.9916 0.105731 17.5864 0.109223 17.0928 0.115549C16.1063 0.128192 14.7627 0.152201 13.3382 0.197735C11.9169 0.243165 10.3988 0.310514 9.06829 0.411022C7.79477 0.507226 6.52018 0.644582 5.68805 0.871525L6.74052 4.73058C7.15308 4.61806 8.06439 4.49826 9.3696 4.39966C10.6178 4.30536 12.0713 4.24027 13.466 4.19569C14.8574 4.15122 16.1741 4.12765 17.1441 4.11522C17.6286 4.10901 18.0257 4.10559 18.301 4.10373C18.4386 4.10279 18.5458 4.10225 18.6182 4.10194C18.6545 4.10179 18.682 4.10169 18.7003 4.10163C18.7094 4.1016 18.7163 4.10158 18.7207 4.10157C18.723 4.10157 18.7246 4.10156 18.7256 4.10156C18.7262 4.10156 18.7265 4.10156 18.7267 4.10156C18.7268 4.10156 18.7269 4.10156 18.7269 4.10156C18.727 4.10156 18.7269 4.10156 18.7228 2.10156ZM31.7576 0.850952C30.9238 0.623562 29.6478 0.487731 28.3744 0.393441C27.0436 0.294899 25.5252 0.230172 24.1038 0.187335C22.6791 0.144399 21.3354 0.122987 20.3489 0.112288C19.8552 0.106935 19.45 0.104254 19.1677 0.102911C19.0265 0.10224 18.916 0.101903 18.8404 0.101733C18.8026 0.101649 18.7736 0.101606 18.7538 0.101584C18.7439 0.101574 18.7364 0.101568 18.7312 0.101565C18.7286 0.101564 18.7266 0.101563 18.7252 0.101563C18.7245 0.101563 18.7239 0.101563 18.7235 0.101563C18.7233 0.101563 18.7232 0.101563 18.7231 0.101563C18.7229 0.101563 18.7228 0.101562 18.7228 2.10156C18.7228 4.10156 18.7228 4.10156 18.7228 4.10156C18.7229 4.10156 18.7229 4.10156 18.723 4.10156C18.7232 4.10156 18.7236 4.10156 18.7241 4.10156C18.7252 4.10156 18.7268 4.10156 18.729 4.10156C18.7335 4.10157 18.7403 4.10157 18.7495 4.10158C18.7678 4.1016 18.7953 4.10164 18.8315 4.10172C18.9039 4.10189 19.011 4.10221 19.1487 4.10287C19.424 4.10418 19.821 4.1068 20.3055 4.11205C21.2754 4.12257 22.592 4.14359 23.9833 4.18552C25.3779 4.22755 26.8311 4.29012 28.079 4.38252C29.3843 4.47918 30.2942 4.59794 30.7051 4.71001L31.7576 0.850952ZM34.4436 2.40733C33.6984 1.66214 32.771 1.12518 31.7538 0.849911L30.709 4.71105C31.0517 4.80379 31.3641 4.9847 31.6152 5.23575L34.4436 2.40733ZM16.5366 19.8794L24.8482 15.0653L22.8434 11.604L14.5318 16.4181L16.5366 19.8794ZM13.5342 8.52051V18.1488H17.5342V8.52051H13.5342ZM24.8482 11.604L16.5366 6.78985L14.5318 10.2512L22.8434 15.0653L24.8482 11.604Z" fill="#FF7070" mask="url(#path-1-outside-1_1_1163)"/>
</svg>
